%TF.GenerationSoftware,KiCad,Pcbnew,(5.1.6)-1*%
%TF.CreationDate,2020-06-26T00:22:10+04:00*%
%TF.ProjectId,ch340c-progarmmer,63683334-3063-42d7-9072-6f6761726d6d,rev?*%
%TF.SameCoordinates,Original*%
%TF.FileFunction,Paste,Top*%
%TF.FilePolarity,Positive*%
%FSLAX46Y46*%
G04 Gerber Fmt 4.6, Leading zero omitted, Abs format (unit mm)*
G04 Created by KiCad (PCBNEW (5.1.6)-1) date 2020-06-26 00:22:10*
%MOMM*%
%LPD*%
G01*
G04 APERTURE LIST*
%ADD10R,1.450000X0.600000*%
%ADD11R,1.450000X0.300000*%
%ADD12R,0.800000X0.500000*%
%ADD13R,0.800000X0.400000*%
G04 APERTURE END LIST*
%TO.C,U1*%
G36*
G01*
X190794500Y-43730500D02*
X191094500Y-43730500D01*
G75*
G02*
X191244500Y-43880500I0J-150000D01*
G01*
X191244500Y-45530500D01*
G75*
G02*
X191094500Y-45680500I-150000J0D01*
G01*
X190794500Y-45680500D01*
G75*
G02*
X190644500Y-45530500I0J150000D01*
G01*
X190644500Y-43880500D01*
G75*
G02*
X190794500Y-43730500I150000J0D01*
G01*
G37*
G36*
G01*
X189524500Y-43730500D02*
X189824500Y-43730500D01*
G75*
G02*
X189974500Y-43880500I0J-150000D01*
G01*
X189974500Y-45530500D01*
G75*
G02*
X189824500Y-45680500I-150000J0D01*
G01*
X189524500Y-45680500D01*
G75*
G02*
X189374500Y-45530500I0J150000D01*
G01*
X189374500Y-43880500D01*
G75*
G02*
X189524500Y-43730500I150000J0D01*
G01*
G37*
G36*
G01*
X188254500Y-43730500D02*
X188554500Y-43730500D01*
G75*
G02*
X188704500Y-43880500I0J-150000D01*
G01*
X188704500Y-45530500D01*
G75*
G02*
X188554500Y-45680500I-150000J0D01*
G01*
X188254500Y-45680500D01*
G75*
G02*
X188104500Y-45530500I0J150000D01*
G01*
X188104500Y-43880500D01*
G75*
G02*
X188254500Y-43730500I150000J0D01*
G01*
G37*
G36*
G01*
X186984500Y-43730500D02*
X187284500Y-43730500D01*
G75*
G02*
X187434500Y-43880500I0J-150000D01*
G01*
X187434500Y-45530500D01*
G75*
G02*
X187284500Y-45680500I-150000J0D01*
G01*
X186984500Y-45680500D01*
G75*
G02*
X186834500Y-45530500I0J150000D01*
G01*
X186834500Y-43880500D01*
G75*
G02*
X186984500Y-43730500I150000J0D01*
G01*
G37*
G36*
G01*
X185714500Y-43730500D02*
X186014500Y-43730500D01*
G75*
G02*
X186164500Y-43880500I0J-150000D01*
G01*
X186164500Y-45530500D01*
G75*
G02*
X186014500Y-45680500I-150000J0D01*
G01*
X185714500Y-45680500D01*
G75*
G02*
X185564500Y-45530500I0J150000D01*
G01*
X185564500Y-43880500D01*
G75*
G02*
X185714500Y-43730500I150000J0D01*
G01*
G37*
G36*
G01*
X184444500Y-43730500D02*
X184744500Y-43730500D01*
G75*
G02*
X184894500Y-43880500I0J-150000D01*
G01*
X184894500Y-45530500D01*
G75*
G02*
X184744500Y-45680500I-150000J0D01*
G01*
X184444500Y-45680500D01*
G75*
G02*
X184294500Y-45530500I0J150000D01*
G01*
X184294500Y-43880500D01*
G75*
G02*
X184444500Y-43730500I150000J0D01*
G01*
G37*
G36*
G01*
X183174500Y-43730500D02*
X183474500Y-43730500D01*
G75*
G02*
X183624500Y-43880500I0J-150000D01*
G01*
X183624500Y-45530500D01*
G75*
G02*
X183474500Y-45680500I-150000J0D01*
G01*
X183174500Y-45680500D01*
G75*
G02*
X183024500Y-45530500I0J150000D01*
G01*
X183024500Y-43880500D01*
G75*
G02*
X183174500Y-43730500I150000J0D01*
G01*
G37*
G36*
G01*
X181904500Y-43730500D02*
X182204500Y-43730500D01*
G75*
G02*
X182354500Y-43880500I0J-150000D01*
G01*
X182354500Y-45530500D01*
G75*
G02*
X182204500Y-45680500I-150000J0D01*
G01*
X181904500Y-45680500D01*
G75*
G02*
X181754500Y-45530500I0J150000D01*
G01*
X181754500Y-43880500D01*
G75*
G02*
X181904500Y-43730500I150000J0D01*
G01*
G37*
G36*
G01*
X181904500Y-48680500D02*
X182204500Y-48680500D01*
G75*
G02*
X182354500Y-48830500I0J-150000D01*
G01*
X182354500Y-50480500D01*
G75*
G02*
X182204500Y-50630500I-150000J0D01*
G01*
X181904500Y-50630500D01*
G75*
G02*
X181754500Y-50480500I0J150000D01*
G01*
X181754500Y-48830500D01*
G75*
G02*
X181904500Y-48680500I150000J0D01*
G01*
G37*
G36*
G01*
X183174500Y-48680500D02*
X183474500Y-48680500D01*
G75*
G02*
X183624500Y-48830500I0J-150000D01*
G01*
X183624500Y-50480500D01*
G75*
G02*
X183474500Y-50630500I-150000J0D01*
G01*
X183174500Y-50630500D01*
G75*
G02*
X183024500Y-50480500I0J150000D01*
G01*
X183024500Y-48830500D01*
G75*
G02*
X183174500Y-48680500I150000J0D01*
G01*
G37*
G36*
G01*
X184444500Y-48680500D02*
X184744500Y-48680500D01*
G75*
G02*
X184894500Y-48830500I0J-150000D01*
G01*
X184894500Y-50480500D01*
G75*
G02*
X184744500Y-50630500I-150000J0D01*
G01*
X184444500Y-50630500D01*
G75*
G02*
X184294500Y-50480500I0J150000D01*
G01*
X184294500Y-48830500D01*
G75*
G02*
X184444500Y-48680500I150000J0D01*
G01*
G37*
G36*
G01*
X185714500Y-48680500D02*
X186014500Y-48680500D01*
G75*
G02*
X186164500Y-48830500I0J-150000D01*
G01*
X186164500Y-50480500D01*
G75*
G02*
X186014500Y-50630500I-150000J0D01*
G01*
X185714500Y-50630500D01*
G75*
G02*
X185564500Y-50480500I0J150000D01*
G01*
X185564500Y-48830500D01*
G75*
G02*
X185714500Y-48680500I150000J0D01*
G01*
G37*
G36*
G01*
X186984500Y-48680500D02*
X187284500Y-48680500D01*
G75*
G02*
X187434500Y-48830500I0J-150000D01*
G01*
X187434500Y-50480500D01*
G75*
G02*
X187284500Y-50630500I-150000J0D01*
G01*
X186984500Y-50630500D01*
G75*
G02*
X186834500Y-50480500I0J150000D01*
G01*
X186834500Y-48830500D01*
G75*
G02*
X186984500Y-48680500I150000J0D01*
G01*
G37*
G36*
G01*
X188254500Y-48680500D02*
X188554500Y-48680500D01*
G75*
G02*
X188704500Y-48830500I0J-150000D01*
G01*
X188704500Y-50480500D01*
G75*
G02*
X188554500Y-50630500I-150000J0D01*
G01*
X188254500Y-50630500D01*
G75*
G02*
X188104500Y-50480500I0J150000D01*
G01*
X188104500Y-48830500D01*
G75*
G02*
X188254500Y-48680500I150000J0D01*
G01*
G37*
G36*
G01*
X189524500Y-48680500D02*
X189824500Y-48680500D01*
G75*
G02*
X189974500Y-48830500I0J-150000D01*
G01*
X189974500Y-50480500D01*
G75*
G02*
X189824500Y-50630500I-150000J0D01*
G01*
X189524500Y-50630500D01*
G75*
G02*
X189374500Y-50480500I0J150000D01*
G01*
X189374500Y-48830500D01*
G75*
G02*
X189524500Y-48680500I150000J0D01*
G01*
G37*
G36*
G01*
X190794500Y-48680500D02*
X191094500Y-48680500D01*
G75*
G02*
X191244500Y-48830500I0J-150000D01*
G01*
X191244500Y-50480500D01*
G75*
G02*
X191094500Y-50630500I-150000J0D01*
G01*
X190794500Y-50630500D01*
G75*
G02*
X190644500Y-50480500I0J150000D01*
G01*
X190644500Y-48830500D01*
G75*
G02*
X190794500Y-48680500I150000J0D01*
G01*
G37*
%TD*%
D10*
%TO.C,J1*%
X176511000Y-50303500D03*
X176511000Y-49503500D03*
X176511000Y-44603500D03*
X176511000Y-43803500D03*
X176511000Y-43803500D03*
X176511000Y-44603500D03*
X176511000Y-49503500D03*
X176511000Y-50303500D03*
D11*
X176511000Y-45303500D03*
X176511000Y-45803500D03*
X176511000Y-46303500D03*
X176511000Y-47303500D03*
X176511000Y-47803500D03*
X176511000Y-48303500D03*
X176511000Y-48803500D03*
X176511000Y-46803500D03*
%TD*%
%TO.C,F1*%
G36*
G01*
X178699000Y-51448000D02*
X179949000Y-51448000D01*
G75*
G02*
X180199000Y-51698000I0J-250000D01*
G01*
X180199000Y-52448000D01*
G75*
G02*
X179949000Y-52698000I-250000J0D01*
G01*
X178699000Y-52698000D01*
G75*
G02*
X178449000Y-52448000I0J250000D01*
G01*
X178449000Y-51698000D01*
G75*
G02*
X178699000Y-51448000I250000J0D01*
G01*
G37*
G36*
G01*
X178699000Y-48648000D02*
X179949000Y-48648000D01*
G75*
G02*
X180199000Y-48898000I0J-250000D01*
G01*
X180199000Y-49648000D01*
G75*
G02*
X179949000Y-49898000I-250000J0D01*
G01*
X178699000Y-49898000D01*
G75*
G02*
X178449000Y-49648000I0J250000D01*
G01*
X178449000Y-48898000D01*
G75*
G02*
X178699000Y-48648000I250000J0D01*
G01*
G37*
%TD*%
%TO.C,D2*%
G36*
G01*
X197614250Y-48278500D02*
X197101750Y-48278500D01*
G75*
G02*
X196883000Y-48059750I0J218750D01*
G01*
X196883000Y-47622250D01*
G75*
G02*
X197101750Y-47403500I218750J0D01*
G01*
X197614250Y-47403500D01*
G75*
G02*
X197833000Y-47622250I0J-218750D01*
G01*
X197833000Y-48059750D01*
G75*
G02*
X197614250Y-48278500I-218750J0D01*
G01*
G37*
G36*
G01*
X197614250Y-46703500D02*
X197101750Y-46703500D01*
G75*
G02*
X196883000Y-46484750I0J218750D01*
G01*
X196883000Y-46047250D01*
G75*
G02*
X197101750Y-45828500I218750J0D01*
G01*
X197614250Y-45828500D01*
G75*
G02*
X197833000Y-46047250I0J-218750D01*
G01*
X197833000Y-46484750D01*
G75*
G02*
X197614250Y-46703500I-218750J0D01*
G01*
G37*
%TD*%
%TO.C,D1*%
G36*
G01*
X197101750Y-50578500D02*
X197614250Y-50578500D01*
G75*
G02*
X197833000Y-50797250I0J-218750D01*
G01*
X197833000Y-51234750D01*
G75*
G02*
X197614250Y-51453500I-218750J0D01*
G01*
X197101750Y-51453500D01*
G75*
G02*
X196883000Y-51234750I0J218750D01*
G01*
X196883000Y-50797250D01*
G75*
G02*
X197101750Y-50578500I218750J0D01*
G01*
G37*
G36*
G01*
X197101750Y-49003500D02*
X197614250Y-49003500D01*
G75*
G02*
X197833000Y-49222250I0J-218750D01*
G01*
X197833000Y-49659750D01*
G75*
G02*
X197614250Y-49878500I-218750J0D01*
G01*
X197101750Y-49878500D01*
G75*
G02*
X196883000Y-49659750I0J218750D01*
G01*
X196883000Y-49222250D01*
G75*
G02*
X197101750Y-49003500I218750J0D01*
G01*
G37*
%TD*%
%TO.C,C2*%
G36*
G01*
X178289500Y-42737750D02*
X178289500Y-42225250D01*
G75*
G02*
X178508250Y-42006500I218750J0D01*
G01*
X178945750Y-42006500D01*
G75*
G02*
X179164500Y-42225250I0J-218750D01*
G01*
X179164500Y-42737750D01*
G75*
G02*
X178945750Y-42956500I-218750J0D01*
G01*
X178508250Y-42956500D01*
G75*
G02*
X178289500Y-42737750I0J218750D01*
G01*
G37*
G36*
G01*
X179864500Y-42737750D02*
X179864500Y-42225250D01*
G75*
G02*
X180083250Y-42006500I218750J0D01*
G01*
X180520750Y-42006500D01*
G75*
G02*
X180739500Y-42225250I0J-218750D01*
G01*
X180739500Y-42737750D01*
G75*
G02*
X180520750Y-42956500I-218750J0D01*
G01*
X180083250Y-42956500D01*
G75*
G02*
X179864500Y-42737750I0J218750D01*
G01*
G37*
%TD*%
%TO.C,C1*%
G36*
G01*
X178289500Y-44261750D02*
X178289500Y-43749250D01*
G75*
G02*
X178508250Y-43530500I218750J0D01*
G01*
X178945750Y-43530500D01*
G75*
G02*
X179164500Y-43749250I0J-218750D01*
G01*
X179164500Y-44261750D01*
G75*
G02*
X178945750Y-44480500I-218750J0D01*
G01*
X178508250Y-44480500D01*
G75*
G02*
X178289500Y-44261750I0J218750D01*
G01*
G37*
G36*
G01*
X179864500Y-44261750D02*
X179864500Y-43749250D01*
G75*
G02*
X180083250Y-43530500I218750J0D01*
G01*
X180520750Y-43530500D01*
G75*
G02*
X180739500Y-43749250I0J-218750D01*
G01*
X180739500Y-44261750D01*
G75*
G02*
X180520750Y-44480500I-218750J0D01*
G01*
X180083250Y-44480500D01*
G75*
G02*
X179864500Y-44261750I0J218750D01*
G01*
G37*
%TD*%
%TO.C,C6*%
G36*
G01*
X185122000Y-42737750D02*
X185122000Y-42225250D01*
G75*
G02*
X185340750Y-42006500I218750J0D01*
G01*
X185778250Y-42006500D01*
G75*
G02*
X185997000Y-42225250I0J-218750D01*
G01*
X185997000Y-42737750D01*
G75*
G02*
X185778250Y-42956500I-218750J0D01*
G01*
X185340750Y-42956500D01*
G75*
G02*
X185122000Y-42737750I0J218750D01*
G01*
G37*
G36*
G01*
X186697000Y-42737750D02*
X186697000Y-42225250D01*
G75*
G02*
X186915750Y-42006500I218750J0D01*
G01*
X187353250Y-42006500D01*
G75*
G02*
X187572000Y-42225250I0J-218750D01*
G01*
X187572000Y-42737750D01*
G75*
G02*
X187353250Y-42956500I-218750J0D01*
G01*
X186915750Y-42956500D01*
G75*
G02*
X186697000Y-42737750I0J218750D01*
G01*
G37*
%TD*%
%TO.C,C5*%
G36*
G01*
X189147000Y-51940750D02*
X189147000Y-52453250D01*
G75*
G02*
X188928250Y-52672000I-218750J0D01*
G01*
X188490750Y-52672000D01*
G75*
G02*
X188272000Y-52453250I0J218750D01*
G01*
X188272000Y-51940750D01*
G75*
G02*
X188490750Y-51722000I218750J0D01*
G01*
X188928250Y-51722000D01*
G75*
G02*
X189147000Y-51940750I0J-218750D01*
G01*
G37*
G36*
G01*
X187572000Y-51940750D02*
X187572000Y-52453250D01*
G75*
G02*
X187353250Y-52672000I-218750J0D01*
G01*
X186915750Y-52672000D01*
G75*
G02*
X186697000Y-52453250I0J218750D01*
G01*
X186697000Y-51940750D01*
G75*
G02*
X186915750Y-51722000I218750J0D01*
G01*
X187353250Y-51722000D01*
G75*
G02*
X187572000Y-51940750I0J-218750D01*
G01*
G37*
%TD*%
D12*
%TO.C,RN1*%
X195210000Y-50476000D03*
D13*
X195210000Y-49676000D03*
D12*
X195210000Y-48076000D03*
D13*
X195210000Y-48876000D03*
D12*
X193410000Y-50476000D03*
D13*
X193410000Y-48876000D03*
X193410000Y-49676000D03*
D12*
X193410000Y-48076000D03*
%TD*%
M02*
