%TF.GenerationSoftware,KiCad,Pcbnew,(5.1.6)-1*%
%TF.CreationDate,2020-06-26T00:22:11+04:00*%
%TF.ProjectId,ch340c-progarmmer,63683334-3063-42d7-9072-6f6761726d6d,rev?*%
%TF.SameCoordinates,Original*%
%TF.FileFunction,Legend,Bot*%
%TF.FilePolarity,Positive*%
%FSLAX46Y46*%
G04 Gerber Fmt 4.6, Leading zero omitted, Abs format (unit mm)*
G04 Created by KiCad (PCBNEW (5.1.6)-1) date 2020-06-26 00:22:11*
%MOMM*%
%LPD*%
G01*
G04 APERTURE LIST*
%ADD10C,0.010000*%
%ADD11C,0.120000*%
%ADD12C,0.150000*%
G04 APERTURE END LIST*
D10*
%TO.C,REF\u002A\u002A*%
G36*
X197218122Y-44547776D02*
G01*
X197112388Y-44548355D01*
X197035868Y-44549922D01*
X196983628Y-44552972D01*
X196950737Y-44557996D01*
X196932263Y-44565489D01*
X196923273Y-44575944D01*
X196918837Y-44589853D01*
X196918406Y-44591654D01*
X196911667Y-44624145D01*
X196899192Y-44688252D01*
X196882281Y-44777151D01*
X196862229Y-44884019D01*
X196840336Y-45002033D01*
X196839571Y-45006178D01*
X196817641Y-45121831D01*
X196797123Y-45224014D01*
X196779341Y-45306598D01*
X196765619Y-45363456D01*
X196757282Y-45388458D01*
X196756884Y-45388901D01*
X196732323Y-45401110D01*
X196681685Y-45421456D01*
X196615905Y-45445545D01*
X196615539Y-45445674D01*
X196532683Y-45476818D01*
X196435000Y-45516491D01*
X196342923Y-45556381D01*
X196338566Y-45558353D01*
X196188593Y-45626420D01*
X195856502Y-45399639D01*
X195754626Y-45330504D01*
X195662343Y-45268697D01*
X195584997Y-45217733D01*
X195527936Y-45181127D01*
X195496505Y-45162394D01*
X195493521Y-45161004D01*
X195470679Y-45167190D01*
X195428018Y-45197035D01*
X195363872Y-45251947D01*
X195276579Y-45333334D01*
X195187465Y-45419922D01*
X195101559Y-45505247D01*
X195024673Y-45583108D01*
X194961436Y-45648697D01*
X194916477Y-45697205D01*
X194894424Y-45723825D01*
X194893604Y-45725195D01*
X194891166Y-45743463D01*
X194900350Y-45773295D01*
X194923426Y-45818721D01*
X194962663Y-45883770D01*
X195020330Y-45972470D01*
X195097205Y-46086657D01*
X195165430Y-46187162D01*
X195226418Y-46277303D01*
X195276644Y-46351849D01*
X195312584Y-46405565D01*
X195330713Y-46433218D01*
X195331854Y-46435095D01*
X195329641Y-46461590D01*
X195312862Y-46513086D01*
X195284858Y-46579851D01*
X195274878Y-46601172D01*
X195231328Y-46696159D01*
X195184866Y-46803937D01*
X195147123Y-46897192D01*
X195119927Y-46966406D01*
X195098325Y-47019006D01*
X195085842Y-47046497D01*
X195084291Y-47048616D01*
X195061332Y-47052124D01*
X195007214Y-47061738D01*
X194929132Y-47076089D01*
X194834281Y-47093807D01*
X194729857Y-47113525D01*
X194623056Y-47133874D01*
X194521074Y-47153486D01*
X194431106Y-47170991D01*
X194360347Y-47185022D01*
X194315994Y-47194209D01*
X194305115Y-47196807D01*
X194293878Y-47203218D01*
X194285395Y-47217697D01*
X194279286Y-47245133D01*
X194275168Y-47290411D01*
X194272659Y-47358420D01*
X194271379Y-47454047D01*
X194270946Y-47582180D01*
X194270923Y-47634701D01*
X194270923Y-48061845D01*
X194373500Y-48082091D01*
X194430569Y-48093070D01*
X194515731Y-48109095D01*
X194618628Y-48128233D01*
X194728904Y-48148551D01*
X194759385Y-48154132D01*
X194861145Y-48173917D01*
X194949795Y-48193373D01*
X195017892Y-48210697D01*
X195057996Y-48224088D01*
X195064677Y-48228079D01*
X195081081Y-48256342D01*
X195104601Y-48311109D01*
X195130684Y-48381588D01*
X195135858Y-48396769D01*
X195170044Y-48490896D01*
X195212477Y-48597101D01*
X195254003Y-48692473D01*
X195254208Y-48692916D01*
X195323360Y-48842525D01*
X194868488Y-49511617D01*
X195160500Y-49804116D01*
X195248820Y-49891170D01*
X195329375Y-49967909D01*
X195397640Y-50030237D01*
X195449092Y-50074056D01*
X195479206Y-50095270D01*
X195483526Y-50096616D01*
X195508889Y-50086016D01*
X195560642Y-50056547D01*
X195633132Y-50011705D01*
X195720706Y-49954984D01*
X195815388Y-49891462D01*
X195911484Y-49826668D01*
X195997163Y-49770287D01*
X196066984Y-49725788D01*
X196115506Y-49696639D01*
X196137218Y-49686308D01*
X196163707Y-49695050D01*
X196213938Y-49718087D01*
X196277549Y-49750631D01*
X196284292Y-49754249D01*
X196369954Y-49797210D01*
X196428694Y-49818279D01*
X196465228Y-49818503D01*
X196484269Y-49798928D01*
X196484380Y-49798654D01*
X196493898Y-49775472D01*
X196516597Y-49720441D01*
X196550718Y-49637822D01*
X196594500Y-49531872D01*
X196646184Y-49406852D01*
X196704008Y-49267020D01*
X196760009Y-49131637D01*
X196821553Y-48982234D01*
X196878061Y-48843832D01*
X196927839Y-48720673D01*
X196969194Y-48617002D01*
X197000432Y-48537059D01*
X197019859Y-48485088D01*
X197025846Y-48465692D01*
X197010832Y-48443443D01*
X196971561Y-48407982D01*
X196919193Y-48368887D01*
X196770059Y-48245245D01*
X196653489Y-48103522D01*
X196570882Y-47946704D01*
X196523634Y-47777775D01*
X196513143Y-47599722D01*
X196520769Y-47517539D01*
X196562318Y-47347031D01*
X196633877Y-47196459D01*
X196731005Y-47067309D01*
X196849266Y-46961064D01*
X196984220Y-46879210D01*
X197131429Y-46823232D01*
X197286456Y-46794615D01*
X197444861Y-46794844D01*
X197602206Y-46825405D01*
X197754054Y-46887782D01*
X197895965Y-46983460D01*
X197955197Y-47037572D01*
X198068797Y-47176520D01*
X198147894Y-47328361D01*
X198193014Y-47488667D01*
X198204684Y-47653012D01*
X198183431Y-47816971D01*
X198129780Y-47976118D01*
X198044260Y-48126025D01*
X197927395Y-48262267D01*
X197796807Y-48368887D01*
X197742412Y-48409642D01*
X197703986Y-48444718D01*
X197690154Y-48465726D01*
X197697397Y-48488635D01*
X197717995Y-48543365D01*
X197750254Y-48625672D01*
X197792479Y-48731315D01*
X197842977Y-48856050D01*
X197900052Y-48995636D01*
X197956146Y-49131670D01*
X198018033Y-49281201D01*
X198075356Y-49419767D01*
X198126356Y-49543107D01*
X198169273Y-49646964D01*
X198202347Y-49727080D01*
X198223819Y-49779195D01*
X198231775Y-49798654D01*
X198250571Y-49818423D01*
X198286926Y-49818365D01*
X198345521Y-49797441D01*
X198431032Y-49754613D01*
X198431708Y-49754249D01*
X198496093Y-49721012D01*
X198548139Y-49696802D01*
X198577488Y-49686404D01*
X198578783Y-49686308D01*
X198600876Y-49696855D01*
X198649652Y-49726184D01*
X198719669Y-49770827D01*
X198805486Y-49827314D01*
X198900612Y-49891462D01*
X198997460Y-49956411D01*
X199084747Y-50012896D01*
X199156819Y-50057421D01*
X199208023Y-50086490D01*
X199232474Y-50096616D01*
X199254990Y-50083307D01*
X199300258Y-50046112D01*
X199363756Y-49989128D01*
X199440961Y-49916449D01*
X199527349Y-49832171D01*
X199555601Y-49804016D01*
X199847713Y-49511416D01*
X199625369Y-49185104D01*
X199557798Y-49084897D01*
X199498493Y-48994963D01*
X199450783Y-48920510D01*
X199417993Y-48866751D01*
X199403452Y-48838894D01*
X199403026Y-48836912D01*
X199410692Y-48810655D01*
X199431311Y-48757837D01*
X199461315Y-48687310D01*
X199482375Y-48640093D01*
X199521752Y-48549694D01*
X199558835Y-48458366D01*
X199587585Y-48381200D01*
X199595395Y-48357692D01*
X199617583Y-48294916D01*
X199639273Y-48246411D01*
X199651187Y-48228079D01*
X199677477Y-48216859D01*
X199734858Y-48200954D01*
X199815882Y-48182167D01*
X199913105Y-48162299D01*
X199956615Y-48154132D01*
X200067104Y-48133829D01*
X200173084Y-48114170D01*
X200264199Y-48097088D01*
X200330092Y-48084518D01*
X200342500Y-48082091D01*
X200445077Y-48061845D01*
X200445077Y-47634701D01*
X200444847Y-47494246D01*
X200443901Y-47387979D01*
X200441859Y-47311013D01*
X200438338Y-47258460D01*
X200432957Y-47225433D01*
X200425334Y-47207045D01*
X200415088Y-47198408D01*
X200410885Y-47196807D01*
X200385530Y-47191127D01*
X200329516Y-47179795D01*
X200250036Y-47164179D01*
X200154288Y-47145647D01*
X200049467Y-47125569D01*
X199942768Y-47105312D01*
X199841387Y-47086246D01*
X199752521Y-47069739D01*
X199683363Y-47057159D01*
X199641111Y-47049875D01*
X199631710Y-47048616D01*
X199623193Y-47031763D01*
X199604340Y-46986870D01*
X199578676Y-46922430D01*
X199568877Y-46897192D01*
X199529352Y-46799686D01*
X199482808Y-46691959D01*
X199441123Y-46601172D01*
X199410450Y-46531753D01*
X199390044Y-46474710D01*
X199383232Y-46439777D01*
X199384318Y-46435095D01*
X199398715Y-46412991D01*
X199431588Y-46363831D01*
X199479410Y-46292848D01*
X199538652Y-46205278D01*
X199605785Y-46106357D01*
X199619059Y-46086830D01*
X199696954Y-45971140D01*
X199754213Y-45883044D01*
X199793119Y-45818486D01*
X199815956Y-45773411D01*
X199825006Y-45743763D01*
X199822552Y-45725485D01*
X199822489Y-45725369D01*
X199803173Y-45701361D01*
X199760449Y-45654947D01*
X199698949Y-45590937D01*
X199623302Y-45514145D01*
X199538139Y-45429382D01*
X199528535Y-45419922D01*
X199421210Y-45315989D01*
X199338385Y-45239675D01*
X199278395Y-45189571D01*
X199239577Y-45164270D01*
X199222480Y-45161004D01*
X199197527Y-45175250D01*
X199145745Y-45208156D01*
X199072480Y-45256208D01*
X198983080Y-45315890D01*
X198882889Y-45383688D01*
X198859499Y-45399639D01*
X198527407Y-45626420D01*
X198377435Y-45558353D01*
X198286230Y-45518685D01*
X198188331Y-45478791D01*
X198104169Y-45446983D01*
X198100462Y-45445674D01*
X198034631Y-45421576D01*
X197983884Y-45401200D01*
X197959158Y-45388936D01*
X197959116Y-45388901D01*
X197951271Y-45366734D01*
X197937934Y-45312217D01*
X197920430Y-45231480D01*
X197900083Y-45130650D01*
X197878218Y-45015856D01*
X197876429Y-45006178D01*
X197854496Y-44887904D01*
X197834360Y-44780542D01*
X197817320Y-44690917D01*
X197804672Y-44625851D01*
X197797716Y-44592168D01*
X197797594Y-44591654D01*
X197793361Y-44577325D01*
X197785129Y-44566507D01*
X197767967Y-44558706D01*
X197736942Y-44553429D01*
X197687122Y-44550182D01*
X197613576Y-44548472D01*
X197511371Y-44547807D01*
X197375575Y-44547693D01*
X197358000Y-44547692D01*
X197218122Y-44547776D01*
G37*
X197218122Y-44547776D02*
X197112388Y-44548355D01*
X197035868Y-44549922D01*
X196983628Y-44552972D01*
X196950737Y-44557996D01*
X196932263Y-44565489D01*
X196923273Y-44575944D01*
X196918837Y-44589853D01*
X196918406Y-44591654D01*
X196911667Y-44624145D01*
X196899192Y-44688252D01*
X196882281Y-44777151D01*
X196862229Y-44884019D01*
X196840336Y-45002033D01*
X196839571Y-45006178D01*
X196817641Y-45121831D01*
X196797123Y-45224014D01*
X196779341Y-45306598D01*
X196765619Y-45363456D01*
X196757282Y-45388458D01*
X196756884Y-45388901D01*
X196732323Y-45401110D01*
X196681685Y-45421456D01*
X196615905Y-45445545D01*
X196615539Y-45445674D01*
X196532683Y-45476818D01*
X196435000Y-45516491D01*
X196342923Y-45556381D01*
X196338566Y-45558353D01*
X196188593Y-45626420D01*
X195856502Y-45399639D01*
X195754626Y-45330504D01*
X195662343Y-45268697D01*
X195584997Y-45217733D01*
X195527936Y-45181127D01*
X195496505Y-45162394D01*
X195493521Y-45161004D01*
X195470679Y-45167190D01*
X195428018Y-45197035D01*
X195363872Y-45251947D01*
X195276579Y-45333334D01*
X195187465Y-45419922D01*
X195101559Y-45505247D01*
X195024673Y-45583108D01*
X194961436Y-45648697D01*
X194916477Y-45697205D01*
X194894424Y-45723825D01*
X194893604Y-45725195D01*
X194891166Y-45743463D01*
X194900350Y-45773295D01*
X194923426Y-45818721D01*
X194962663Y-45883770D01*
X195020330Y-45972470D01*
X195097205Y-46086657D01*
X195165430Y-46187162D01*
X195226418Y-46277303D01*
X195276644Y-46351849D01*
X195312584Y-46405565D01*
X195330713Y-46433218D01*
X195331854Y-46435095D01*
X195329641Y-46461590D01*
X195312862Y-46513086D01*
X195284858Y-46579851D01*
X195274878Y-46601172D01*
X195231328Y-46696159D01*
X195184866Y-46803937D01*
X195147123Y-46897192D01*
X195119927Y-46966406D01*
X195098325Y-47019006D01*
X195085842Y-47046497D01*
X195084291Y-47048616D01*
X195061332Y-47052124D01*
X195007214Y-47061738D01*
X194929132Y-47076089D01*
X194834281Y-47093807D01*
X194729857Y-47113525D01*
X194623056Y-47133874D01*
X194521074Y-47153486D01*
X194431106Y-47170991D01*
X194360347Y-47185022D01*
X194315994Y-47194209D01*
X194305115Y-47196807D01*
X194293878Y-47203218D01*
X194285395Y-47217697D01*
X194279286Y-47245133D01*
X194275168Y-47290411D01*
X194272659Y-47358420D01*
X194271379Y-47454047D01*
X194270946Y-47582180D01*
X194270923Y-47634701D01*
X194270923Y-48061845D01*
X194373500Y-48082091D01*
X194430569Y-48093070D01*
X194515731Y-48109095D01*
X194618628Y-48128233D01*
X194728904Y-48148551D01*
X194759385Y-48154132D01*
X194861145Y-48173917D01*
X194949795Y-48193373D01*
X195017892Y-48210697D01*
X195057996Y-48224088D01*
X195064677Y-48228079D01*
X195081081Y-48256342D01*
X195104601Y-48311109D01*
X195130684Y-48381588D01*
X195135858Y-48396769D01*
X195170044Y-48490896D01*
X195212477Y-48597101D01*
X195254003Y-48692473D01*
X195254208Y-48692916D01*
X195323360Y-48842525D01*
X194868488Y-49511617D01*
X195160500Y-49804116D01*
X195248820Y-49891170D01*
X195329375Y-49967909D01*
X195397640Y-50030237D01*
X195449092Y-50074056D01*
X195479206Y-50095270D01*
X195483526Y-50096616D01*
X195508889Y-50086016D01*
X195560642Y-50056547D01*
X195633132Y-50011705D01*
X195720706Y-49954984D01*
X195815388Y-49891462D01*
X195911484Y-49826668D01*
X195997163Y-49770287D01*
X196066984Y-49725788D01*
X196115506Y-49696639D01*
X196137218Y-49686308D01*
X196163707Y-49695050D01*
X196213938Y-49718087D01*
X196277549Y-49750631D01*
X196284292Y-49754249D01*
X196369954Y-49797210D01*
X196428694Y-49818279D01*
X196465228Y-49818503D01*
X196484269Y-49798928D01*
X196484380Y-49798654D01*
X196493898Y-49775472D01*
X196516597Y-49720441D01*
X196550718Y-49637822D01*
X196594500Y-49531872D01*
X196646184Y-49406852D01*
X196704008Y-49267020D01*
X196760009Y-49131637D01*
X196821553Y-48982234D01*
X196878061Y-48843832D01*
X196927839Y-48720673D01*
X196969194Y-48617002D01*
X197000432Y-48537059D01*
X197019859Y-48485088D01*
X197025846Y-48465692D01*
X197010832Y-48443443D01*
X196971561Y-48407982D01*
X196919193Y-48368887D01*
X196770059Y-48245245D01*
X196653489Y-48103522D01*
X196570882Y-47946704D01*
X196523634Y-47777775D01*
X196513143Y-47599722D01*
X196520769Y-47517539D01*
X196562318Y-47347031D01*
X196633877Y-47196459D01*
X196731005Y-47067309D01*
X196849266Y-46961064D01*
X196984220Y-46879210D01*
X197131429Y-46823232D01*
X197286456Y-46794615D01*
X197444861Y-46794844D01*
X197602206Y-46825405D01*
X197754054Y-46887782D01*
X197895965Y-46983460D01*
X197955197Y-47037572D01*
X198068797Y-47176520D01*
X198147894Y-47328361D01*
X198193014Y-47488667D01*
X198204684Y-47653012D01*
X198183431Y-47816971D01*
X198129780Y-47976118D01*
X198044260Y-48126025D01*
X197927395Y-48262267D01*
X197796807Y-48368887D01*
X197742412Y-48409642D01*
X197703986Y-48444718D01*
X197690154Y-48465726D01*
X197697397Y-48488635D01*
X197717995Y-48543365D01*
X197750254Y-48625672D01*
X197792479Y-48731315D01*
X197842977Y-48856050D01*
X197900052Y-48995636D01*
X197956146Y-49131670D01*
X198018033Y-49281201D01*
X198075356Y-49419767D01*
X198126356Y-49543107D01*
X198169273Y-49646964D01*
X198202347Y-49727080D01*
X198223819Y-49779195D01*
X198231775Y-49798654D01*
X198250571Y-49818423D01*
X198286926Y-49818365D01*
X198345521Y-49797441D01*
X198431032Y-49754613D01*
X198431708Y-49754249D01*
X198496093Y-49721012D01*
X198548139Y-49696802D01*
X198577488Y-49686404D01*
X198578783Y-49686308D01*
X198600876Y-49696855D01*
X198649652Y-49726184D01*
X198719669Y-49770827D01*
X198805486Y-49827314D01*
X198900612Y-49891462D01*
X198997460Y-49956411D01*
X199084747Y-50012896D01*
X199156819Y-50057421D01*
X199208023Y-50086490D01*
X199232474Y-50096616D01*
X199254990Y-50083307D01*
X199300258Y-50046112D01*
X199363756Y-49989128D01*
X199440961Y-49916449D01*
X199527349Y-49832171D01*
X199555601Y-49804016D01*
X199847713Y-49511416D01*
X199625369Y-49185104D01*
X199557798Y-49084897D01*
X199498493Y-48994963D01*
X199450783Y-48920510D01*
X199417993Y-48866751D01*
X199403452Y-48838894D01*
X199403026Y-48836912D01*
X199410692Y-48810655D01*
X199431311Y-48757837D01*
X199461315Y-48687310D01*
X199482375Y-48640093D01*
X199521752Y-48549694D01*
X199558835Y-48458366D01*
X199587585Y-48381200D01*
X199595395Y-48357692D01*
X199617583Y-48294916D01*
X199639273Y-48246411D01*
X199651187Y-48228079D01*
X199677477Y-48216859D01*
X199734858Y-48200954D01*
X199815882Y-48182167D01*
X199913105Y-48162299D01*
X199956615Y-48154132D01*
X200067104Y-48133829D01*
X200173084Y-48114170D01*
X200264199Y-48097088D01*
X200330092Y-48084518D01*
X200342500Y-48082091D01*
X200445077Y-48061845D01*
X200445077Y-47634701D01*
X200444847Y-47494246D01*
X200443901Y-47387979D01*
X200441859Y-47311013D01*
X200438338Y-47258460D01*
X200432957Y-47225433D01*
X200425334Y-47207045D01*
X200415088Y-47198408D01*
X200410885Y-47196807D01*
X200385530Y-47191127D01*
X200329516Y-47179795D01*
X200250036Y-47164179D01*
X200154288Y-47145647D01*
X200049467Y-47125569D01*
X199942768Y-47105312D01*
X199841387Y-47086246D01*
X199752521Y-47069739D01*
X199683363Y-47057159D01*
X199641111Y-47049875D01*
X199631710Y-47048616D01*
X199623193Y-47031763D01*
X199604340Y-46986870D01*
X199578676Y-46922430D01*
X199568877Y-46897192D01*
X199529352Y-46799686D01*
X199482808Y-46691959D01*
X199441123Y-46601172D01*
X199410450Y-46531753D01*
X199390044Y-46474710D01*
X199383232Y-46439777D01*
X199384318Y-46435095D01*
X199398715Y-46412991D01*
X199431588Y-46363831D01*
X199479410Y-46292848D01*
X199538652Y-46205278D01*
X199605785Y-46106357D01*
X199619059Y-46086830D01*
X199696954Y-45971140D01*
X199754213Y-45883044D01*
X199793119Y-45818486D01*
X199815956Y-45773411D01*
X199825006Y-45743763D01*
X199822552Y-45725485D01*
X199822489Y-45725369D01*
X199803173Y-45701361D01*
X199760449Y-45654947D01*
X199698949Y-45590937D01*
X199623302Y-45514145D01*
X199538139Y-45429382D01*
X199528535Y-45419922D01*
X199421210Y-45315989D01*
X199338385Y-45239675D01*
X199278395Y-45189571D01*
X199239577Y-45164270D01*
X199222480Y-45161004D01*
X199197527Y-45175250D01*
X199145745Y-45208156D01*
X199072480Y-45256208D01*
X198983080Y-45315890D01*
X198882889Y-45383688D01*
X198859499Y-45399639D01*
X198527407Y-45626420D01*
X198377435Y-45558353D01*
X198286230Y-45518685D01*
X198188331Y-45478791D01*
X198104169Y-45446983D01*
X198100462Y-45445674D01*
X198034631Y-45421576D01*
X197983884Y-45401200D01*
X197959158Y-45388936D01*
X197959116Y-45388901D01*
X197951271Y-45366734D01*
X197937934Y-45312217D01*
X197920430Y-45231480D01*
X197900083Y-45130650D01*
X197878218Y-45015856D01*
X197876429Y-45006178D01*
X197854496Y-44887904D01*
X197834360Y-44780542D01*
X197817320Y-44690917D01*
X197804672Y-44625851D01*
X197797716Y-44592168D01*
X197797594Y-44591654D01*
X197793361Y-44577325D01*
X197785129Y-44566507D01*
X197767967Y-44558706D01*
X197736942Y-44553429D01*
X197687122Y-44550182D01*
X197613576Y-44548472D01*
X197511371Y-44547807D01*
X197375575Y-44547693D01*
X197358000Y-44547692D01*
X197218122Y-44547776D01*
G36*
X193112776Y-50907838D02*
G01*
X193035472Y-50958361D01*
X192998186Y-51003590D01*
X192968647Y-51085663D01*
X192966301Y-51150607D01*
X192971615Y-51237445D01*
X193171885Y-51325103D01*
X193269261Y-51369887D01*
X193332887Y-51405913D01*
X193365971Y-51437117D01*
X193371720Y-51467436D01*
X193353342Y-51500805D01*
X193333077Y-51522923D01*
X193274111Y-51558393D01*
X193209976Y-51560879D01*
X193151074Y-51533235D01*
X193107803Y-51478320D01*
X193100064Y-51458928D01*
X193062994Y-51398364D01*
X193020346Y-51372552D01*
X192961846Y-51350471D01*
X192961846Y-51434184D01*
X192967018Y-51491150D01*
X192987277Y-51539189D01*
X193029738Y-51594346D01*
X193036049Y-51601514D01*
X193083280Y-51650585D01*
X193123879Y-51676920D01*
X193174672Y-51689035D01*
X193216780Y-51693003D01*
X193292098Y-51693991D01*
X193345714Y-51681466D01*
X193379162Y-51662869D01*
X193431732Y-51621975D01*
X193468121Y-51577748D01*
X193491150Y-51522126D01*
X193503641Y-51447047D01*
X193508413Y-51344449D01*
X193508794Y-51292376D01*
X193507499Y-51229948D01*
X193389529Y-51229948D01*
X193388161Y-51263438D01*
X193384751Y-51268923D01*
X193362247Y-51261472D01*
X193313818Y-51241753D01*
X193249092Y-51213718D01*
X193235557Y-51207692D01*
X193153756Y-51166096D01*
X193108688Y-51129538D01*
X193098783Y-51095296D01*
X193122474Y-51060648D01*
X193142040Y-51045339D01*
X193212640Y-51014721D01*
X193278720Y-51019780D01*
X193334041Y-51057151D01*
X193372364Y-51123473D01*
X193384651Y-51176116D01*
X193389529Y-51229948D01*
X193507499Y-51229948D01*
X193506270Y-51170720D01*
X193496968Y-51080710D01*
X193478540Y-51015167D01*
X193448640Y-50966912D01*
X193404920Y-50928767D01*
X193385859Y-50916440D01*
X193299274Y-50884336D01*
X193204478Y-50882316D01*
X193112776Y-50907838D01*
G37*
X193112776Y-50907838D02*
X193035472Y-50958361D01*
X192998186Y-51003590D01*
X192968647Y-51085663D01*
X192966301Y-51150607D01*
X192971615Y-51237445D01*
X193171885Y-51325103D01*
X193269261Y-51369887D01*
X193332887Y-51405913D01*
X193365971Y-51437117D01*
X193371720Y-51467436D01*
X193353342Y-51500805D01*
X193333077Y-51522923D01*
X193274111Y-51558393D01*
X193209976Y-51560879D01*
X193151074Y-51533235D01*
X193107803Y-51478320D01*
X193100064Y-51458928D01*
X193062994Y-51398364D01*
X193020346Y-51372552D01*
X192961846Y-51350471D01*
X192961846Y-51434184D01*
X192967018Y-51491150D01*
X192987277Y-51539189D01*
X193029738Y-51594346D01*
X193036049Y-51601514D01*
X193083280Y-51650585D01*
X193123879Y-51676920D01*
X193174672Y-51689035D01*
X193216780Y-51693003D01*
X193292098Y-51693991D01*
X193345714Y-51681466D01*
X193379162Y-51662869D01*
X193431732Y-51621975D01*
X193468121Y-51577748D01*
X193491150Y-51522126D01*
X193503641Y-51447047D01*
X193508413Y-51344449D01*
X193508794Y-51292376D01*
X193507499Y-51229948D01*
X193389529Y-51229948D01*
X193388161Y-51263438D01*
X193384751Y-51268923D01*
X193362247Y-51261472D01*
X193313818Y-51241753D01*
X193249092Y-51213718D01*
X193235557Y-51207692D01*
X193153756Y-51166096D01*
X193108688Y-51129538D01*
X193098783Y-51095296D01*
X193122474Y-51060648D01*
X193142040Y-51045339D01*
X193212640Y-51014721D01*
X193278720Y-51019780D01*
X193334041Y-51057151D01*
X193372364Y-51123473D01*
X193384651Y-51176116D01*
X193389529Y-51229948D01*
X193507499Y-51229948D01*
X193506270Y-51170720D01*
X193496968Y-51080710D01*
X193478540Y-51015167D01*
X193448640Y-50966912D01*
X193404920Y-50928767D01*
X193385859Y-50916440D01*
X193299274Y-50884336D01*
X193204478Y-50882316D01*
X193112776Y-50907838D01*
G36*
X193787193Y-50896782D02*
G01*
X193763839Y-50906988D01*
X193708098Y-50951134D01*
X193660431Y-51014967D01*
X193630952Y-51083087D01*
X193626154Y-51116670D01*
X193642240Y-51163556D01*
X193677525Y-51188365D01*
X193715356Y-51203387D01*
X193732679Y-51206155D01*
X193741114Y-51186066D01*
X193757770Y-51142351D01*
X193765077Y-51122598D01*
X193806052Y-51054271D01*
X193865378Y-51020191D01*
X193941448Y-51021239D01*
X193947082Y-51022581D01*
X193987695Y-51041836D01*
X194017552Y-51079375D01*
X194037945Y-51139809D01*
X194050164Y-51227751D01*
X194055500Y-51347813D01*
X194056000Y-51411698D01*
X194056248Y-51512403D01*
X194057874Y-51581054D01*
X194062199Y-51624673D01*
X194070546Y-51650282D01*
X194084235Y-51664903D01*
X194104589Y-51675558D01*
X194105766Y-51676095D01*
X194144962Y-51692667D01*
X194164381Y-51698769D01*
X194167365Y-51680319D01*
X194169919Y-51629323D01*
X194171860Y-51552308D01*
X194173003Y-51455805D01*
X194173231Y-51385184D01*
X194172068Y-51248525D01*
X194167521Y-51144851D01*
X194158001Y-51068108D01*
X194141919Y-51012246D01*
X194117687Y-50971212D01*
X194083714Y-50938954D01*
X194050167Y-50916440D01*
X193969501Y-50886476D01*
X193875619Y-50879718D01*
X193787193Y-50896782D01*
G37*
X193787193Y-50896782D02*
X193763839Y-50906988D01*
X193708098Y-50951134D01*
X193660431Y-51014967D01*
X193630952Y-51083087D01*
X193626154Y-51116670D01*
X193642240Y-51163556D01*
X193677525Y-51188365D01*
X193715356Y-51203387D01*
X193732679Y-51206155D01*
X193741114Y-51186066D01*
X193757770Y-51142351D01*
X193765077Y-51122598D01*
X193806052Y-51054271D01*
X193865378Y-51020191D01*
X193941448Y-51021239D01*
X193947082Y-51022581D01*
X193987695Y-51041836D01*
X194017552Y-51079375D01*
X194037945Y-51139809D01*
X194050164Y-51227751D01*
X194055500Y-51347813D01*
X194056000Y-51411698D01*
X194056248Y-51512403D01*
X194057874Y-51581054D01*
X194062199Y-51624673D01*
X194070546Y-51650282D01*
X194084235Y-51664903D01*
X194104589Y-51675558D01*
X194105766Y-51676095D01*
X194144962Y-51692667D01*
X194164381Y-51698769D01*
X194167365Y-51680319D01*
X194169919Y-51629323D01*
X194171860Y-51552308D01*
X194173003Y-51455805D01*
X194173231Y-51385184D01*
X194172068Y-51248525D01*
X194167521Y-51144851D01*
X194158001Y-51068108D01*
X194141919Y-51012246D01*
X194117687Y-50971212D01*
X194083714Y-50938954D01*
X194050167Y-50916440D01*
X193969501Y-50886476D01*
X193875619Y-50879718D01*
X193787193Y-50896782D01*
G36*
X194470667Y-50893528D02*
G01*
X194414410Y-50919117D01*
X194370253Y-50950124D01*
X194337899Y-50984795D01*
X194315562Y-51029520D01*
X194301454Y-51090692D01*
X194293789Y-51174701D01*
X194290780Y-51287940D01*
X194290462Y-51362509D01*
X194290462Y-51653420D01*
X194340227Y-51676095D01*
X194379424Y-51692667D01*
X194398843Y-51698769D01*
X194402558Y-51680610D01*
X194405505Y-51631648D01*
X194407309Y-51560153D01*
X194407692Y-51503385D01*
X194409339Y-51421371D01*
X194413778Y-51356309D01*
X194420260Y-51316467D01*
X194425410Y-51308000D01*
X194460023Y-51316646D01*
X194514360Y-51338823D01*
X194577278Y-51368886D01*
X194637632Y-51401192D01*
X194684279Y-51430098D01*
X194706074Y-51449961D01*
X194706161Y-51450175D01*
X194704286Y-51486935D01*
X194687475Y-51522026D01*
X194657961Y-51550528D01*
X194614884Y-51560061D01*
X194578068Y-51558950D01*
X194525926Y-51558133D01*
X194498556Y-51570349D01*
X194482118Y-51602624D01*
X194480045Y-51608710D01*
X194472919Y-51654739D01*
X194491976Y-51682687D01*
X194541647Y-51696007D01*
X194595303Y-51698470D01*
X194691858Y-51680210D01*
X194741841Y-51654131D01*
X194803571Y-51592868D01*
X194836310Y-51517670D01*
X194839247Y-51438211D01*
X194811576Y-51364167D01*
X194769953Y-51317769D01*
X194728396Y-51291793D01*
X194663078Y-51258907D01*
X194586962Y-51225557D01*
X194574274Y-51220461D01*
X194490667Y-51183565D01*
X194442470Y-51151046D01*
X194426970Y-51118718D01*
X194441450Y-51082394D01*
X194466308Y-51054000D01*
X194525061Y-51019039D01*
X194589707Y-51016417D01*
X194648992Y-51043358D01*
X194691661Y-51097088D01*
X194697261Y-51110950D01*
X194729867Y-51161936D01*
X194777470Y-51199787D01*
X194837539Y-51230850D01*
X194837539Y-51142768D01*
X194834003Y-51088951D01*
X194818844Y-51046534D01*
X194785232Y-51001279D01*
X194752965Y-50966420D01*
X194702791Y-50917062D01*
X194663807Y-50890547D01*
X194621936Y-50879911D01*
X194574540Y-50878154D01*
X194470667Y-50893528D01*
G37*
X194470667Y-50893528D02*
X194414410Y-50919117D01*
X194370253Y-50950124D01*
X194337899Y-50984795D01*
X194315562Y-51029520D01*
X194301454Y-51090692D01*
X194293789Y-51174701D01*
X194290780Y-51287940D01*
X194290462Y-51362509D01*
X194290462Y-51653420D01*
X194340227Y-51676095D01*
X194379424Y-51692667D01*
X194398843Y-51698769D01*
X194402558Y-51680610D01*
X194405505Y-51631648D01*
X194407309Y-51560153D01*
X194407692Y-51503385D01*
X194409339Y-51421371D01*
X194413778Y-51356309D01*
X194420260Y-51316467D01*
X194425410Y-51308000D01*
X194460023Y-51316646D01*
X194514360Y-51338823D01*
X194577278Y-51368886D01*
X194637632Y-51401192D01*
X194684279Y-51430098D01*
X194706074Y-51449961D01*
X194706161Y-51450175D01*
X194704286Y-51486935D01*
X194687475Y-51522026D01*
X194657961Y-51550528D01*
X194614884Y-51560061D01*
X194578068Y-51558950D01*
X194525926Y-51558133D01*
X194498556Y-51570349D01*
X194482118Y-51602624D01*
X194480045Y-51608710D01*
X194472919Y-51654739D01*
X194491976Y-51682687D01*
X194541647Y-51696007D01*
X194595303Y-51698470D01*
X194691858Y-51680210D01*
X194741841Y-51654131D01*
X194803571Y-51592868D01*
X194836310Y-51517670D01*
X194839247Y-51438211D01*
X194811576Y-51364167D01*
X194769953Y-51317769D01*
X194728396Y-51291793D01*
X194663078Y-51258907D01*
X194586962Y-51225557D01*
X194574274Y-51220461D01*
X194490667Y-51183565D01*
X194442470Y-51151046D01*
X194426970Y-51118718D01*
X194441450Y-51082394D01*
X194466308Y-51054000D01*
X194525061Y-51019039D01*
X194589707Y-51016417D01*
X194648992Y-51043358D01*
X194691661Y-51097088D01*
X194697261Y-51110950D01*
X194729867Y-51161936D01*
X194777470Y-51199787D01*
X194837539Y-51230850D01*
X194837539Y-51142768D01*
X194834003Y-51088951D01*
X194818844Y-51046534D01*
X194785232Y-51001279D01*
X194752965Y-50966420D01*
X194702791Y-50917062D01*
X194663807Y-50890547D01*
X194621936Y-50879911D01*
X194574540Y-50878154D01*
X194470667Y-50893528D01*
G36*
X194962071Y-50896662D02*
G01*
X194959089Y-50948068D01*
X194956753Y-51026192D01*
X194955251Y-51124857D01*
X194954769Y-51228343D01*
X194954769Y-51578533D01*
X195016599Y-51640363D01*
X195059207Y-51678462D01*
X195096610Y-51693895D01*
X195147730Y-51692918D01*
X195168022Y-51690433D01*
X195231446Y-51683200D01*
X195283905Y-51679055D01*
X195296692Y-51678672D01*
X195339801Y-51681176D01*
X195401456Y-51687462D01*
X195425362Y-51690433D01*
X195484078Y-51695028D01*
X195523536Y-51685046D01*
X195562662Y-51654228D01*
X195576785Y-51640363D01*
X195638615Y-51578533D01*
X195638615Y-50923503D01*
X195588850Y-50900829D01*
X195545998Y-50884034D01*
X195520927Y-50878154D01*
X195514499Y-50896736D01*
X195508491Y-50948655D01*
X195503303Y-51028172D01*
X195499336Y-51129546D01*
X195497423Y-51215192D01*
X195492077Y-51552231D01*
X195445440Y-51558825D01*
X195403024Y-51554214D01*
X195382240Y-51539287D01*
X195376430Y-51511377D01*
X195371470Y-51451925D01*
X195367754Y-51368466D01*
X195365676Y-51268532D01*
X195365376Y-51217104D01*
X195365077Y-50921054D01*
X195303546Y-50899604D01*
X195259996Y-50885020D01*
X195236306Y-50878219D01*
X195235623Y-50878154D01*
X195233246Y-50896642D01*
X195230634Y-50947906D01*
X195228005Y-51025649D01*
X195225579Y-51123574D01*
X195223885Y-51215192D01*
X195218539Y-51552231D01*
X195101308Y-51552231D01*
X195095928Y-51244746D01*
X195090549Y-50937261D01*
X195033399Y-50907707D01*
X194991203Y-50887413D01*
X194966230Y-50878204D01*
X194965509Y-50878154D01*
X194962071Y-50896662D01*
G37*
X194962071Y-50896662D02*
X194959089Y-50948068D01*
X194956753Y-51026192D01*
X194955251Y-51124857D01*
X194954769Y-51228343D01*
X194954769Y-51578533D01*
X195016599Y-51640363D01*
X195059207Y-51678462D01*
X195096610Y-51693895D01*
X195147730Y-51692918D01*
X195168022Y-51690433D01*
X195231446Y-51683200D01*
X195283905Y-51679055D01*
X195296692Y-51678672D01*
X195339801Y-51681176D01*
X195401456Y-51687462D01*
X195425362Y-51690433D01*
X195484078Y-51695028D01*
X195523536Y-51685046D01*
X195562662Y-51654228D01*
X195576785Y-51640363D01*
X195638615Y-51578533D01*
X195638615Y-50923503D01*
X195588850Y-50900829D01*
X195545998Y-50884034D01*
X195520927Y-50878154D01*
X195514499Y-50896736D01*
X195508491Y-50948655D01*
X195503303Y-51028172D01*
X195499336Y-51129546D01*
X195497423Y-51215192D01*
X195492077Y-51552231D01*
X195445440Y-51558825D01*
X195403024Y-51554214D01*
X195382240Y-51539287D01*
X195376430Y-51511377D01*
X195371470Y-51451925D01*
X195367754Y-51368466D01*
X195365676Y-51268532D01*
X195365376Y-51217104D01*
X195365077Y-50921054D01*
X195303546Y-50899604D01*
X195259996Y-50885020D01*
X195236306Y-50878219D01*
X195235623Y-50878154D01*
X195233246Y-50896642D01*
X195230634Y-50947906D01*
X195228005Y-51025649D01*
X195225579Y-51123574D01*
X195223885Y-51215192D01*
X195218539Y-51552231D01*
X195101308Y-51552231D01*
X195095928Y-51244746D01*
X195090549Y-50937261D01*
X195033399Y-50907707D01*
X194991203Y-50887413D01*
X194966230Y-50878204D01*
X194965509Y-50878154D01*
X194962071Y-50896662D01*
G36*
X195755919Y-51040289D02*
G01*
X195756167Y-51186320D01*
X195757128Y-51298655D01*
X195759206Y-51382678D01*
X195762807Y-51443769D01*
X195768335Y-51487309D01*
X195776196Y-51518679D01*
X195786793Y-51543262D01*
X195794818Y-51557294D01*
X195861272Y-51633388D01*
X195945530Y-51681084D01*
X196038751Y-51698199D01*
X196132100Y-51682546D01*
X196187688Y-51654418D01*
X196246043Y-51605760D01*
X196285814Y-51546333D01*
X196309810Y-51468507D01*
X196320839Y-51364652D01*
X196322401Y-51288462D01*
X196322191Y-51282986D01*
X196185692Y-51282986D01*
X196184859Y-51370355D01*
X196181039Y-51428192D01*
X196172254Y-51466029D01*
X196156526Y-51493398D01*
X196137734Y-51514042D01*
X196074625Y-51553890D01*
X196006863Y-51557295D01*
X195942821Y-51524025D01*
X195937836Y-51519517D01*
X195916561Y-51496067D01*
X195903221Y-51468166D01*
X195895999Y-51426641D01*
X195893077Y-51362316D01*
X195892615Y-51291200D01*
X195893617Y-51201858D01*
X195897762Y-51142258D01*
X195906764Y-51103089D01*
X195922333Y-51075040D01*
X195935098Y-51060144D01*
X195994400Y-51022575D01*
X196062699Y-51018057D01*
X196127890Y-51046753D01*
X196140472Y-51057406D01*
X196161889Y-51081063D01*
X196175256Y-51109251D01*
X196182434Y-51151245D01*
X196185281Y-51216319D01*
X196185692Y-51282986D01*
X196322191Y-51282986D01*
X196317678Y-51165765D01*
X196301638Y-51073577D01*
X196271472Y-51004269D01*
X196224371Y-50950211D01*
X196187688Y-50922505D01*
X196121010Y-50892572D01*
X196043728Y-50878678D01*
X195971890Y-50882397D01*
X195931692Y-50897400D01*
X195915918Y-50901670D01*
X195905450Y-50885750D01*
X195898144Y-50843089D01*
X195892615Y-50778106D01*
X195886563Y-50705732D01*
X195878156Y-50662187D01*
X195862859Y-50637287D01*
X195836136Y-50620845D01*
X195819346Y-50613564D01*
X195755846Y-50586963D01*
X195755919Y-51040289D01*
G37*
X195755919Y-51040289D02*
X195756167Y-51186320D01*
X195757128Y-51298655D01*
X195759206Y-51382678D01*
X195762807Y-51443769D01*
X195768335Y-51487309D01*
X195776196Y-51518679D01*
X195786793Y-51543262D01*
X195794818Y-51557294D01*
X195861272Y-51633388D01*
X195945530Y-51681084D01*
X196038751Y-51698199D01*
X196132100Y-51682546D01*
X196187688Y-51654418D01*
X196246043Y-51605760D01*
X196285814Y-51546333D01*
X196309810Y-51468507D01*
X196320839Y-51364652D01*
X196322401Y-51288462D01*
X196322191Y-51282986D01*
X196185692Y-51282986D01*
X196184859Y-51370355D01*
X196181039Y-51428192D01*
X196172254Y-51466029D01*
X196156526Y-51493398D01*
X196137734Y-51514042D01*
X196074625Y-51553890D01*
X196006863Y-51557295D01*
X195942821Y-51524025D01*
X195937836Y-51519517D01*
X195916561Y-51496067D01*
X195903221Y-51468166D01*
X195895999Y-51426641D01*
X195893077Y-51362316D01*
X195892615Y-51291200D01*
X195893617Y-51201858D01*
X195897762Y-51142258D01*
X195906764Y-51103089D01*
X195922333Y-51075040D01*
X195935098Y-51060144D01*
X195994400Y-51022575D01*
X196062699Y-51018057D01*
X196127890Y-51046753D01*
X196140472Y-51057406D01*
X196161889Y-51081063D01*
X196175256Y-51109251D01*
X196182434Y-51151245D01*
X196185281Y-51216319D01*
X196185692Y-51282986D01*
X196322191Y-51282986D01*
X196317678Y-51165765D01*
X196301638Y-51073577D01*
X196271472Y-51004269D01*
X196224371Y-50950211D01*
X196187688Y-50922505D01*
X196121010Y-50892572D01*
X196043728Y-50878678D01*
X195971890Y-50882397D01*
X195931692Y-50897400D01*
X195915918Y-50901670D01*
X195905450Y-50885750D01*
X195898144Y-50843089D01*
X195892615Y-50778106D01*
X195886563Y-50705732D01*
X195878156Y-50662187D01*
X195862859Y-50637287D01*
X195836136Y-50620845D01*
X195819346Y-50613564D01*
X195755846Y-50586963D01*
X195755919Y-51040289D01*
G36*
X196644638Y-50884670D02*
G01*
X196555883Y-50917421D01*
X196483978Y-50975350D01*
X196455856Y-51016128D01*
X196425198Y-51090954D01*
X196425835Y-51145058D01*
X196458013Y-51181446D01*
X196469919Y-51187633D01*
X196521325Y-51206925D01*
X196547578Y-51201982D01*
X196556470Y-51169587D01*
X196556923Y-51151692D01*
X196573203Y-51085859D01*
X196615635Y-51039807D01*
X196674612Y-51017564D01*
X196740525Y-51023161D01*
X196794105Y-51052229D01*
X196812202Y-51068810D01*
X196825029Y-51088925D01*
X196833694Y-51119332D01*
X196839304Y-51166788D01*
X196842965Y-51238050D01*
X196845785Y-51339875D01*
X196846516Y-51372115D01*
X196849180Y-51482410D01*
X196852208Y-51560036D01*
X196856750Y-51611396D01*
X196863954Y-51642890D01*
X196874967Y-51660920D01*
X196890940Y-51671888D01*
X196901166Y-51676733D01*
X196944594Y-51693301D01*
X196970158Y-51698769D01*
X196978605Y-51680507D01*
X196983761Y-51625296D01*
X196985654Y-51532499D01*
X196984311Y-51401478D01*
X196983893Y-51381269D01*
X196980942Y-51261733D01*
X196977452Y-51174449D01*
X196972486Y-51112591D01*
X196965107Y-51069336D01*
X196954376Y-51037860D01*
X196939355Y-51011339D01*
X196931498Y-50999975D01*
X196886447Y-50949692D01*
X196836060Y-50910581D01*
X196829892Y-50907167D01*
X196739542Y-50880212D01*
X196644638Y-50884670D01*
G37*
X196644638Y-50884670D02*
X196555883Y-50917421D01*
X196483978Y-50975350D01*
X196455856Y-51016128D01*
X196425198Y-51090954D01*
X196425835Y-51145058D01*
X196458013Y-51181446D01*
X196469919Y-51187633D01*
X196521325Y-51206925D01*
X196547578Y-51201982D01*
X196556470Y-51169587D01*
X196556923Y-51151692D01*
X196573203Y-51085859D01*
X196615635Y-51039807D01*
X196674612Y-51017564D01*
X196740525Y-51023161D01*
X196794105Y-51052229D01*
X196812202Y-51068810D01*
X196825029Y-51088925D01*
X196833694Y-51119332D01*
X196839304Y-51166788D01*
X196842965Y-51238050D01*
X196845785Y-51339875D01*
X196846516Y-51372115D01*
X196849180Y-51482410D01*
X196852208Y-51560036D01*
X196856750Y-51611396D01*
X196863954Y-51642890D01*
X196874967Y-51660920D01*
X196890940Y-51671888D01*
X196901166Y-51676733D01*
X196944594Y-51693301D01*
X196970158Y-51698769D01*
X196978605Y-51680507D01*
X196983761Y-51625296D01*
X196985654Y-51532499D01*
X196984311Y-51401478D01*
X196983893Y-51381269D01*
X196980942Y-51261733D01*
X196977452Y-51174449D01*
X196972486Y-51112591D01*
X196965107Y-51069336D01*
X196954376Y-51037860D01*
X196939355Y-51011339D01*
X196931498Y-50999975D01*
X196886447Y-50949692D01*
X196836060Y-50910581D01*
X196829892Y-50907167D01*
X196739542Y-50880212D01*
X196644638Y-50884670D01*
G36*
X197304499Y-50886303D02*
G01*
X197227940Y-50914733D01*
X197227064Y-50915279D01*
X197179715Y-50950127D01*
X197144759Y-50990852D01*
X197120175Y-51043925D01*
X197103938Y-51115814D01*
X197094025Y-51212992D01*
X197088414Y-51341928D01*
X197087923Y-51360298D01*
X197080859Y-51637287D01*
X197140305Y-51668028D01*
X197183319Y-51688802D01*
X197209290Y-51698646D01*
X197210491Y-51698769D01*
X197214986Y-51680606D01*
X197218556Y-51631612D01*
X197220752Y-51560031D01*
X197221231Y-51502068D01*
X197221242Y-51408170D01*
X197225534Y-51349203D01*
X197240497Y-51321079D01*
X197272518Y-51319706D01*
X197327986Y-51340998D01*
X197411731Y-51380136D01*
X197473311Y-51412643D01*
X197504983Y-51440845D01*
X197514294Y-51471582D01*
X197514308Y-51473104D01*
X197498943Y-51526054D01*
X197453453Y-51554660D01*
X197383834Y-51558803D01*
X197333687Y-51558084D01*
X197307246Y-51572527D01*
X197290757Y-51607218D01*
X197281267Y-51651416D01*
X197294943Y-51676493D01*
X197300093Y-51680082D01*
X197348575Y-51694496D01*
X197416469Y-51696537D01*
X197486388Y-51686983D01*
X197535932Y-51669522D01*
X197604430Y-51611364D01*
X197643366Y-51530408D01*
X197651077Y-51467160D01*
X197645193Y-51410111D01*
X197623899Y-51363542D01*
X197581735Y-51322181D01*
X197513241Y-51280755D01*
X197412956Y-51233993D01*
X197406846Y-51231350D01*
X197316510Y-51189617D01*
X197260765Y-51155391D01*
X197236871Y-51124635D01*
X197242087Y-51093311D01*
X197273672Y-51057383D01*
X197283117Y-51049116D01*
X197346383Y-51017058D01*
X197411936Y-51018407D01*
X197469028Y-51049838D01*
X197506907Y-51108024D01*
X197510426Y-51119446D01*
X197544700Y-51174837D01*
X197588191Y-51201518D01*
X197651077Y-51227960D01*
X197651077Y-51159548D01*
X197631948Y-51060110D01*
X197575169Y-50968902D01*
X197545622Y-50938389D01*
X197478458Y-50899228D01*
X197393044Y-50881500D01*
X197304499Y-50886303D01*
G37*
X197304499Y-50886303D02*
X197227940Y-50914733D01*
X197227064Y-50915279D01*
X197179715Y-50950127D01*
X197144759Y-50990852D01*
X197120175Y-51043925D01*
X197103938Y-51115814D01*
X197094025Y-51212992D01*
X197088414Y-51341928D01*
X197087923Y-51360298D01*
X197080859Y-51637287D01*
X197140305Y-51668028D01*
X197183319Y-51688802D01*
X197209290Y-51698646D01*
X197210491Y-51698769D01*
X197214986Y-51680606D01*
X197218556Y-51631612D01*
X197220752Y-51560031D01*
X197221231Y-51502068D01*
X197221242Y-51408170D01*
X197225534Y-51349203D01*
X197240497Y-51321079D01*
X197272518Y-51319706D01*
X197327986Y-51340998D01*
X197411731Y-51380136D01*
X197473311Y-51412643D01*
X197504983Y-51440845D01*
X197514294Y-51471582D01*
X197514308Y-51473104D01*
X197498943Y-51526054D01*
X197453453Y-51554660D01*
X197383834Y-51558803D01*
X197333687Y-51558084D01*
X197307246Y-51572527D01*
X197290757Y-51607218D01*
X197281267Y-51651416D01*
X197294943Y-51676493D01*
X197300093Y-51680082D01*
X197348575Y-51694496D01*
X197416469Y-51696537D01*
X197486388Y-51686983D01*
X197535932Y-51669522D01*
X197604430Y-51611364D01*
X197643366Y-51530408D01*
X197651077Y-51467160D01*
X197645193Y-51410111D01*
X197623899Y-51363542D01*
X197581735Y-51322181D01*
X197513241Y-51280755D01*
X197412956Y-51233993D01*
X197406846Y-51231350D01*
X197316510Y-51189617D01*
X197260765Y-51155391D01*
X197236871Y-51124635D01*
X197242087Y-51093311D01*
X197273672Y-51057383D01*
X197283117Y-51049116D01*
X197346383Y-51017058D01*
X197411936Y-51018407D01*
X197469028Y-51049838D01*
X197506907Y-51108024D01*
X197510426Y-51119446D01*
X197544700Y-51174837D01*
X197588191Y-51201518D01*
X197651077Y-51227960D01*
X197651077Y-51159548D01*
X197631948Y-51060110D01*
X197575169Y-50968902D01*
X197545622Y-50938389D01*
X197478458Y-50899228D01*
X197393044Y-50881500D01*
X197304499Y-50886303D01*
G36*
X198198154Y-50752120D02*
G01*
X198192428Y-50831980D01*
X198185851Y-50879039D01*
X198176738Y-50899566D01*
X198163402Y-50899829D01*
X198159077Y-50897378D01*
X198101556Y-50879636D01*
X198026732Y-50880672D01*
X197950661Y-50898910D01*
X197903082Y-50922505D01*
X197854298Y-50960198D01*
X197818636Y-51002855D01*
X197794155Y-51057057D01*
X197778913Y-51129384D01*
X197770970Y-51226419D01*
X197768384Y-51354742D01*
X197768338Y-51379358D01*
X197768308Y-51655870D01*
X197829839Y-51677320D01*
X197873541Y-51691912D01*
X197897518Y-51698706D01*
X197898223Y-51698769D01*
X197900585Y-51680345D01*
X197902594Y-51629526D01*
X197904099Y-51552993D01*
X197904947Y-51457430D01*
X197905077Y-51399329D01*
X197905349Y-51284771D01*
X197906748Y-51202667D01*
X197910151Y-51146393D01*
X197916433Y-51109326D01*
X197926471Y-51084844D01*
X197941139Y-51066325D01*
X197950298Y-51057406D01*
X198013211Y-51021466D01*
X198081864Y-51018775D01*
X198144152Y-51049170D01*
X198155671Y-51060144D01*
X198172567Y-51080779D01*
X198184286Y-51105256D01*
X198191767Y-51140647D01*
X198195946Y-51194026D01*
X198197763Y-51272466D01*
X198198154Y-51380617D01*
X198198154Y-51655870D01*
X198259685Y-51677320D01*
X198303387Y-51691912D01*
X198327364Y-51698706D01*
X198328070Y-51698769D01*
X198329874Y-51680069D01*
X198331500Y-51627322D01*
X198332883Y-51545557D01*
X198333958Y-51439805D01*
X198334660Y-51315094D01*
X198334923Y-51176455D01*
X198334923Y-50641806D01*
X198207923Y-50588236D01*
X198198154Y-50752120D01*
G37*
X198198154Y-50752120D02*
X198192428Y-50831980D01*
X198185851Y-50879039D01*
X198176738Y-50899566D01*
X198163402Y-50899829D01*
X198159077Y-50897378D01*
X198101556Y-50879636D01*
X198026732Y-50880672D01*
X197950661Y-50898910D01*
X197903082Y-50922505D01*
X197854298Y-50960198D01*
X197818636Y-51002855D01*
X197794155Y-51057057D01*
X197778913Y-51129384D01*
X197770970Y-51226419D01*
X197768384Y-51354742D01*
X197768338Y-51379358D01*
X197768308Y-51655870D01*
X197829839Y-51677320D01*
X197873541Y-51691912D01*
X197897518Y-51698706D01*
X197898223Y-51698769D01*
X197900585Y-51680345D01*
X197902594Y-51629526D01*
X197904099Y-51552993D01*
X197904947Y-51457430D01*
X197905077Y-51399329D01*
X197905349Y-51284771D01*
X197906748Y-51202667D01*
X197910151Y-51146393D01*
X197916433Y-51109326D01*
X197926471Y-51084844D01*
X197941139Y-51066325D01*
X197950298Y-51057406D01*
X198013211Y-51021466D01*
X198081864Y-51018775D01*
X198144152Y-51049170D01*
X198155671Y-51060144D01*
X198172567Y-51080779D01*
X198184286Y-51105256D01*
X198191767Y-51140647D01*
X198195946Y-51194026D01*
X198197763Y-51272466D01*
X198198154Y-51380617D01*
X198198154Y-51655870D01*
X198259685Y-51677320D01*
X198303387Y-51691912D01*
X198327364Y-51698706D01*
X198328070Y-51698769D01*
X198329874Y-51680069D01*
X198331500Y-51627322D01*
X198332883Y-51545557D01*
X198333958Y-51439805D01*
X198334660Y-51315094D01*
X198334923Y-51176455D01*
X198334923Y-50641806D01*
X198207923Y-50588236D01*
X198198154Y-50752120D01*
G36*
X199823746Y-50859745D02*
G01*
X199746714Y-50911567D01*
X199687184Y-50986412D01*
X199651622Y-51081654D01*
X199644429Y-51151756D01*
X199645246Y-51181009D01*
X199652086Y-51203407D01*
X199670888Y-51223474D01*
X199707592Y-51245733D01*
X199768138Y-51274709D01*
X199858466Y-51314927D01*
X199858923Y-51315129D01*
X199942067Y-51353210D01*
X200010247Y-51387025D01*
X200056495Y-51412933D01*
X200073842Y-51427295D01*
X200073846Y-51427411D01*
X200058557Y-51458685D01*
X200022804Y-51493157D01*
X199981758Y-51517990D01*
X199960963Y-51522923D01*
X199904230Y-51505862D01*
X199855373Y-51463133D01*
X199831535Y-51416155D01*
X199808603Y-51381522D01*
X199763682Y-51342081D01*
X199710877Y-51308009D01*
X199664290Y-51289480D01*
X199654548Y-51288462D01*
X199643582Y-51305215D01*
X199642921Y-51348039D01*
X199650980Y-51405781D01*
X199666173Y-51467289D01*
X199686914Y-51521409D01*
X199687962Y-51523510D01*
X199750379Y-51610660D01*
X199831274Y-51669939D01*
X199923144Y-51699034D01*
X200018487Y-51695634D01*
X200109802Y-51657428D01*
X200113862Y-51654741D01*
X200185694Y-51589642D01*
X200232927Y-51504705D01*
X200259066Y-51393021D01*
X200262574Y-51361643D01*
X200268787Y-51213536D01*
X200261339Y-51144468D01*
X200073846Y-51144468D01*
X200071410Y-51187552D01*
X200058086Y-51200126D01*
X200024868Y-51190719D01*
X199972506Y-51168483D01*
X199913976Y-51140610D01*
X199912521Y-51139872D01*
X199862911Y-51113777D01*
X199843000Y-51096363D01*
X199847910Y-51078107D01*
X199868584Y-51054120D01*
X199921181Y-51019406D01*
X199977823Y-51016856D01*
X200028631Y-51042119D01*
X200063724Y-51090847D01*
X200073846Y-51144468D01*
X200261339Y-51144468D01*
X200256008Y-51095036D01*
X200223222Y-51001055D01*
X200177579Y-50935215D01*
X200095198Y-50868681D01*
X200004454Y-50835676D01*
X199911815Y-50833573D01*
X199823746Y-50859745D01*
G37*
X199823746Y-50859745D02*
X199746714Y-50911567D01*
X199687184Y-50986412D01*
X199651622Y-51081654D01*
X199644429Y-51151756D01*
X199645246Y-51181009D01*
X199652086Y-51203407D01*
X199670888Y-51223474D01*
X199707592Y-51245733D01*
X199768138Y-51274709D01*
X199858466Y-51314927D01*
X199858923Y-51315129D01*
X199942067Y-51353210D01*
X200010247Y-51387025D01*
X200056495Y-51412933D01*
X200073842Y-51427295D01*
X200073846Y-51427411D01*
X200058557Y-51458685D01*
X200022804Y-51493157D01*
X199981758Y-51517990D01*
X199960963Y-51522923D01*
X199904230Y-51505862D01*
X199855373Y-51463133D01*
X199831535Y-51416155D01*
X199808603Y-51381522D01*
X199763682Y-51342081D01*
X199710877Y-51308009D01*
X199664290Y-51289480D01*
X199654548Y-51288462D01*
X199643582Y-51305215D01*
X199642921Y-51348039D01*
X199650980Y-51405781D01*
X199666173Y-51467289D01*
X199686914Y-51521409D01*
X199687962Y-51523510D01*
X199750379Y-51610660D01*
X199831274Y-51669939D01*
X199923144Y-51699034D01*
X200018487Y-51695634D01*
X200109802Y-51657428D01*
X200113862Y-51654741D01*
X200185694Y-51589642D01*
X200232927Y-51504705D01*
X200259066Y-51393021D01*
X200262574Y-51361643D01*
X200268787Y-51213536D01*
X200261339Y-51144468D01*
X200073846Y-51144468D01*
X200071410Y-51187552D01*
X200058086Y-51200126D01*
X200024868Y-51190719D01*
X199972506Y-51168483D01*
X199913976Y-51140610D01*
X199912521Y-51139872D01*
X199862911Y-51113777D01*
X199843000Y-51096363D01*
X199847910Y-51078107D01*
X199868584Y-51054120D01*
X199921181Y-51019406D01*
X199977823Y-51016856D01*
X200028631Y-51042119D01*
X200063724Y-51090847D01*
X200073846Y-51144468D01*
X200261339Y-51144468D01*
X200256008Y-51095036D01*
X200223222Y-51001055D01*
X200177579Y-50935215D01*
X200095198Y-50868681D01*
X200004454Y-50835676D01*
X199911815Y-50833573D01*
X199823746Y-50859745D01*
G36*
X201341114Y-50847256D02*
G01*
X201249536Y-50895409D01*
X201181951Y-50972905D01*
X201157943Y-51022727D01*
X201139262Y-51097533D01*
X201129699Y-51192052D01*
X201128792Y-51295210D01*
X201136079Y-51395935D01*
X201151097Y-51483153D01*
X201173385Y-51545791D01*
X201180235Y-51556579D01*
X201261368Y-51637105D01*
X201357734Y-51685336D01*
X201462299Y-51699450D01*
X201568032Y-51677629D01*
X201597457Y-51664547D01*
X201654759Y-51624231D01*
X201705050Y-51570775D01*
X201709803Y-51563995D01*
X201729122Y-51531321D01*
X201741892Y-51496394D01*
X201749436Y-51450414D01*
X201753076Y-51384584D01*
X201754135Y-51290105D01*
X201754154Y-51268923D01*
X201754106Y-51262182D01*
X201558769Y-51262182D01*
X201557632Y-51351349D01*
X201553159Y-51410520D01*
X201543754Y-51448741D01*
X201527824Y-51475053D01*
X201519692Y-51483846D01*
X201472942Y-51517261D01*
X201427553Y-51515737D01*
X201381660Y-51486752D01*
X201354288Y-51455809D01*
X201338077Y-51410643D01*
X201328974Y-51339420D01*
X201328349Y-51331114D01*
X201326796Y-51202037D01*
X201343035Y-51106172D01*
X201376848Y-51044107D01*
X201428016Y-51016432D01*
X201446280Y-51014923D01*
X201494240Y-51022513D01*
X201527047Y-51048808D01*
X201547105Y-51099095D01*
X201556822Y-51178664D01*
X201558769Y-51262182D01*
X201754106Y-51262182D01*
X201753426Y-51168249D01*
X201750371Y-51097906D01*
X201743678Y-51049163D01*
X201732040Y-51013288D01*
X201714147Y-50981548D01*
X201710192Y-50975648D01*
X201643733Y-50896104D01*
X201571315Y-50849929D01*
X201483151Y-50831599D01*
X201453213Y-50830703D01*
X201341114Y-50847256D01*
G37*
X201341114Y-50847256D02*
X201249536Y-50895409D01*
X201181951Y-50972905D01*
X201157943Y-51022727D01*
X201139262Y-51097533D01*
X201129699Y-51192052D01*
X201128792Y-51295210D01*
X201136079Y-51395935D01*
X201151097Y-51483153D01*
X201173385Y-51545791D01*
X201180235Y-51556579D01*
X201261368Y-51637105D01*
X201357734Y-51685336D01*
X201462299Y-51699450D01*
X201568032Y-51677629D01*
X201597457Y-51664547D01*
X201654759Y-51624231D01*
X201705050Y-51570775D01*
X201709803Y-51563995D01*
X201729122Y-51531321D01*
X201741892Y-51496394D01*
X201749436Y-51450414D01*
X201753076Y-51384584D01*
X201754135Y-51290105D01*
X201754154Y-51268923D01*
X201754106Y-51262182D01*
X201558769Y-51262182D01*
X201557632Y-51351349D01*
X201553159Y-51410520D01*
X201543754Y-51448741D01*
X201527824Y-51475053D01*
X201519692Y-51483846D01*
X201472942Y-51517261D01*
X201427553Y-51515737D01*
X201381660Y-51486752D01*
X201354288Y-51455809D01*
X201338077Y-51410643D01*
X201328974Y-51339420D01*
X201328349Y-51331114D01*
X201326796Y-51202037D01*
X201343035Y-51106172D01*
X201376848Y-51044107D01*
X201428016Y-51016432D01*
X201446280Y-51014923D01*
X201494240Y-51022513D01*
X201527047Y-51048808D01*
X201547105Y-51099095D01*
X201556822Y-51178664D01*
X201558769Y-51262182D01*
X201754106Y-51262182D01*
X201753426Y-51168249D01*
X201750371Y-51097906D01*
X201743678Y-51049163D01*
X201732040Y-51013288D01*
X201714147Y-50981548D01*
X201710192Y-50975648D01*
X201643733Y-50896104D01*
X201571315Y-50849929D01*
X201483151Y-50831599D01*
X201453213Y-50830703D01*
X201341114Y-50847256D01*
G36*
X199086336Y-50855089D02*
G01*
X199023633Y-50891358D01*
X198980039Y-50927358D01*
X198948155Y-50965075D01*
X198926190Y-51011199D01*
X198912351Y-51072421D01*
X198904847Y-51155431D01*
X198901883Y-51266919D01*
X198901539Y-51347062D01*
X198901539Y-51642065D01*
X199067615Y-51716515D01*
X199077385Y-51393402D01*
X199081421Y-51272729D01*
X199085656Y-51185141D01*
X199090903Y-51124650D01*
X199097975Y-51085268D01*
X199107689Y-51061007D01*
X199120856Y-51045880D01*
X199125081Y-51042606D01*
X199189091Y-51017034D01*
X199253792Y-51027153D01*
X199292308Y-51054000D01*
X199307975Y-51073024D01*
X199318820Y-51097988D01*
X199325712Y-51135834D01*
X199329521Y-51193502D01*
X199331117Y-51277935D01*
X199331385Y-51365928D01*
X199331437Y-51476323D01*
X199333328Y-51554463D01*
X199339655Y-51607165D01*
X199353017Y-51641242D01*
X199376015Y-51663511D01*
X199411246Y-51680787D01*
X199458303Y-51698738D01*
X199509697Y-51718278D01*
X199503579Y-51371485D01*
X199501116Y-51246468D01*
X199498233Y-51154082D01*
X199494102Y-51087881D01*
X199487893Y-51041420D01*
X199478774Y-51008256D01*
X199465917Y-50981944D01*
X199450416Y-50958729D01*
X199375629Y-50884569D01*
X199284372Y-50841684D01*
X199185117Y-50831412D01*
X199086336Y-50855089D01*
G37*
X199086336Y-50855089D02*
X199023633Y-50891358D01*
X198980039Y-50927358D01*
X198948155Y-50965075D01*
X198926190Y-51011199D01*
X198912351Y-51072421D01*
X198904847Y-51155431D01*
X198901883Y-51266919D01*
X198901539Y-51347062D01*
X198901539Y-51642065D01*
X199067615Y-51716515D01*
X199077385Y-51393402D01*
X199081421Y-51272729D01*
X199085656Y-51185141D01*
X199090903Y-51124650D01*
X199097975Y-51085268D01*
X199107689Y-51061007D01*
X199120856Y-51045880D01*
X199125081Y-51042606D01*
X199189091Y-51017034D01*
X199253792Y-51027153D01*
X199292308Y-51054000D01*
X199307975Y-51073024D01*
X199318820Y-51097988D01*
X199325712Y-51135834D01*
X199329521Y-51193502D01*
X199331117Y-51277935D01*
X199331385Y-51365928D01*
X199331437Y-51476323D01*
X199333328Y-51554463D01*
X199339655Y-51607165D01*
X199353017Y-51641242D01*
X199376015Y-51663511D01*
X199411246Y-51680787D01*
X199458303Y-51698738D01*
X199509697Y-51718278D01*
X199503579Y-51371485D01*
X199501116Y-51246468D01*
X199498233Y-51154082D01*
X199494102Y-51087881D01*
X199487893Y-51041420D01*
X199478774Y-51008256D01*
X199465917Y-50981944D01*
X199450416Y-50958729D01*
X199375629Y-50884569D01*
X199284372Y-50841684D01*
X199185117Y-50831412D01*
X199086336Y-50855089D01*
G36*
X200589114Y-50844505D02*
G01*
X200514461Y-50881727D01*
X200448569Y-50950261D01*
X200430423Y-50975648D01*
X200410655Y-51008866D01*
X200397828Y-51044945D01*
X200390490Y-51093098D01*
X200387187Y-51162536D01*
X200386462Y-51254206D01*
X200389737Y-51379830D01*
X200401123Y-51474154D01*
X200422959Y-51544523D01*
X200457581Y-51598286D01*
X200507330Y-51642788D01*
X200510986Y-51645423D01*
X200560015Y-51672377D01*
X200619055Y-51685712D01*
X200694141Y-51689000D01*
X200816205Y-51689000D01*
X200816256Y-51807497D01*
X200817392Y-51873492D01*
X200824314Y-51912202D01*
X200842402Y-51935419D01*
X200877038Y-51954933D01*
X200885355Y-51958920D01*
X200924280Y-51977603D01*
X200954417Y-51989403D01*
X200976826Y-51990422D01*
X200992567Y-51976761D01*
X201002698Y-51944522D01*
X201008277Y-51889804D01*
X201010365Y-51808711D01*
X201010019Y-51697344D01*
X201008300Y-51551802D01*
X201007763Y-51508269D01*
X201005828Y-51358205D01*
X201004096Y-51260042D01*
X200816308Y-51260042D01*
X200815252Y-51343364D01*
X200810562Y-51397880D01*
X200799949Y-51433837D01*
X200781128Y-51461482D01*
X200768350Y-51474965D01*
X200716110Y-51514417D01*
X200669858Y-51517628D01*
X200622133Y-51485049D01*
X200620923Y-51483846D01*
X200601506Y-51458668D01*
X200589693Y-51424447D01*
X200583735Y-51371748D01*
X200581880Y-51291131D01*
X200581846Y-51273271D01*
X200586330Y-51162175D01*
X200600926Y-51085161D01*
X200627350Y-51038147D01*
X200667317Y-51017050D01*
X200690416Y-51014923D01*
X200745238Y-51024900D01*
X200782842Y-51057752D01*
X200805477Y-51117857D01*
X200815394Y-51209598D01*
X200816308Y-51260042D01*
X201004096Y-51260042D01*
X201003778Y-51242060D01*
X201001127Y-51154679D01*
X200997394Y-51090905D01*
X200992093Y-51045582D01*
X200984742Y-51013555D01*
X200974857Y-50989668D01*
X200961954Y-50968764D01*
X200956421Y-50960898D01*
X200883031Y-50886595D01*
X200790240Y-50844467D01*
X200682904Y-50832722D01*
X200589114Y-50844505D01*
G37*
X200589114Y-50844505D02*
X200514461Y-50881727D01*
X200448569Y-50950261D01*
X200430423Y-50975648D01*
X200410655Y-51008866D01*
X200397828Y-51044945D01*
X200390490Y-51093098D01*
X200387187Y-51162536D01*
X200386462Y-51254206D01*
X200389737Y-51379830D01*
X200401123Y-51474154D01*
X200422959Y-51544523D01*
X200457581Y-51598286D01*
X200507330Y-51642788D01*
X200510986Y-51645423D01*
X200560015Y-51672377D01*
X200619055Y-51685712D01*
X200694141Y-51689000D01*
X200816205Y-51689000D01*
X200816256Y-51807497D01*
X200817392Y-51873492D01*
X200824314Y-51912202D01*
X200842402Y-51935419D01*
X200877038Y-51954933D01*
X200885355Y-51958920D01*
X200924280Y-51977603D01*
X200954417Y-51989403D01*
X200976826Y-51990422D01*
X200992567Y-51976761D01*
X201002698Y-51944522D01*
X201008277Y-51889804D01*
X201010365Y-51808711D01*
X201010019Y-51697344D01*
X201008300Y-51551802D01*
X201007763Y-51508269D01*
X201005828Y-51358205D01*
X201004096Y-51260042D01*
X200816308Y-51260042D01*
X200815252Y-51343364D01*
X200810562Y-51397880D01*
X200799949Y-51433837D01*
X200781128Y-51461482D01*
X200768350Y-51474965D01*
X200716110Y-51514417D01*
X200669858Y-51517628D01*
X200622133Y-51485049D01*
X200620923Y-51483846D01*
X200601506Y-51458668D01*
X200589693Y-51424447D01*
X200583735Y-51371748D01*
X200581880Y-51291131D01*
X200581846Y-51273271D01*
X200586330Y-51162175D01*
X200600926Y-51085161D01*
X200627350Y-51038147D01*
X200667317Y-51017050D01*
X200690416Y-51014923D01*
X200745238Y-51024900D01*
X200782842Y-51057752D01*
X200805477Y-51117857D01*
X200815394Y-51209598D01*
X200816308Y-51260042D01*
X201004096Y-51260042D01*
X201003778Y-51242060D01*
X201001127Y-51154679D01*
X200997394Y-51090905D01*
X200992093Y-51045582D01*
X200984742Y-51013555D01*
X200974857Y-50989668D01*
X200961954Y-50968764D01*
X200956421Y-50960898D01*
X200883031Y-50886595D01*
X200790240Y-50844467D01*
X200682904Y-50832722D01*
X200589114Y-50844505D01*
D11*
%TO.C,U2*%
X189012000Y-43961000D02*
X183002000Y-43961000D01*
X186762000Y-50781000D02*
X183002000Y-50781000D01*
X183002000Y-43961000D02*
X183002000Y-45221000D01*
X183002000Y-50781000D02*
X183002000Y-49521000D01*
%TO.C,C3*%
X190117000Y-46327279D02*
X190117000Y-46001721D01*
X191137000Y-46327279D02*
X191137000Y-46001721D01*
%TO.C,C4*%
X191895000Y-46327279D02*
X191895000Y-46001721D01*
X192915000Y-46327279D02*
X192915000Y-46001721D01*
%TO.C,U2*%
D12*
X185673904Y-42323380D02*
X185673904Y-43132904D01*
X185626285Y-43228142D01*
X185578666Y-43275761D01*
X185483428Y-43323380D01*
X185292952Y-43323380D01*
X185197714Y-43275761D01*
X185150095Y-43228142D01*
X185102476Y-43132904D01*
X185102476Y-42323380D01*
X184673904Y-42418619D02*
X184626285Y-42371000D01*
X184531047Y-42323380D01*
X184292952Y-42323380D01*
X184197714Y-42371000D01*
X184150095Y-42418619D01*
X184102476Y-42513857D01*
X184102476Y-42609095D01*
X184150095Y-42751952D01*
X184721523Y-43323380D01*
X184102476Y-43323380D01*
%TD*%
M02*
