%TF.GenerationSoftware,KiCad,Pcbnew,(5.1.6)-1*%
%TF.CreationDate,2020-06-26T00:22:10+04:00*%
%TF.ProjectId,ch340c-progarmmer,63683334-3063-42d7-9072-6f6761726d6d,rev?*%
%TF.SameCoordinates,Original*%
%TF.FileFunction,Paste,Bot*%
%TF.FilePolarity,Positive*%
%FSLAX46Y46*%
G04 Gerber Fmt 4.6, Leading zero omitted, Abs format (unit mm)*
G04 Created by KiCad (PCBNEW (5.1.6)-1) date 2020-06-26 00:22:10*
%MOMM*%
%LPD*%
G01*
G04 APERTURE LIST*
%ADD10R,2.000000X1.500000*%
%ADD11R,2.000000X3.800000*%
G04 APERTURE END LIST*
D10*
%TO.C,U2*%
X188062000Y-45071000D03*
X188062000Y-49671000D03*
X188062000Y-47371000D03*
D11*
X181762000Y-47371000D03*
%TD*%
%TO.C,C3*%
G36*
G01*
X190883250Y-47389500D02*
X190370750Y-47389500D01*
G75*
G02*
X190152000Y-47170750I0J218750D01*
G01*
X190152000Y-46733250D01*
G75*
G02*
X190370750Y-46514500I218750J0D01*
G01*
X190883250Y-46514500D01*
G75*
G02*
X191102000Y-46733250I0J-218750D01*
G01*
X191102000Y-47170750D01*
G75*
G02*
X190883250Y-47389500I-218750J0D01*
G01*
G37*
G36*
G01*
X190883250Y-45814500D02*
X190370750Y-45814500D01*
G75*
G02*
X190152000Y-45595750I0J218750D01*
G01*
X190152000Y-45158250D01*
G75*
G02*
X190370750Y-44939500I218750J0D01*
G01*
X190883250Y-44939500D01*
G75*
G02*
X191102000Y-45158250I0J-218750D01*
G01*
X191102000Y-45595750D01*
G75*
G02*
X190883250Y-45814500I-218750J0D01*
G01*
G37*
%TD*%
%TO.C,C4*%
G36*
G01*
X192661250Y-45814500D02*
X192148750Y-45814500D01*
G75*
G02*
X191930000Y-45595750I0J218750D01*
G01*
X191930000Y-45158250D01*
G75*
G02*
X192148750Y-44939500I218750J0D01*
G01*
X192661250Y-44939500D01*
G75*
G02*
X192880000Y-45158250I0J-218750D01*
G01*
X192880000Y-45595750D01*
G75*
G02*
X192661250Y-45814500I-218750J0D01*
G01*
G37*
G36*
G01*
X192661250Y-47389500D02*
X192148750Y-47389500D01*
G75*
G02*
X191930000Y-47170750I0J218750D01*
G01*
X191930000Y-46733250D01*
G75*
G02*
X192148750Y-46514500I218750J0D01*
G01*
X192661250Y-46514500D01*
G75*
G02*
X192880000Y-46733250I0J-218750D01*
G01*
X192880000Y-47170750D01*
G75*
G02*
X192661250Y-47389500I-218750J0D01*
G01*
G37*
%TD*%
M02*
