%TF.GenerationSoftware,KiCad,Pcbnew,(5.1.6)-1*%
%TF.CreationDate,2020-06-26T00:22:10+04:00*%
%TF.ProjectId,ch340c-progarmmer,63683334-3063-42d7-9072-6f6761726d6d,rev?*%
%TF.SameCoordinates,Original*%
%TF.FileFunction,Legend,Top*%
%TF.FilePolarity,Positive*%
%FSLAX46Y46*%
G04 Gerber Fmt 4.6, Leading zero omitted, Abs format (unit mm)*
G04 Created by KiCad (PCBNEW (5.1.6)-1) date 2020-06-26 00:22:10*
%MOMM*%
%LPD*%
G01*
G04 APERTURE LIST*
%ADD10C,0.120000*%
%ADD11C,0.150000*%
%ADD12C,0.125000*%
G04 APERTURE END LIST*
D10*
X203898500Y-52324000D02*
X206565500Y-52324000D01*
X203898500Y-49784000D02*
X206565500Y-49784000D01*
X203898500Y-47307500D02*
X206565500Y-47307500D01*
X203898500Y-44704000D02*
X206565500Y-44704000D01*
X203898500Y-39624000D02*
X203902000Y-42227500D01*
X205232000Y-39627500D02*
X203898500Y-39624000D01*
X206562000Y-40957500D02*
X206565500Y-42291000D01*
X197612000Y-40195500D02*
X197612000Y-42862500D01*
X193802000Y-40199000D02*
X195135500Y-40195500D01*
X192468500Y-42862500D02*
X195072000Y-42859000D01*
X192468500Y-42799000D02*
X192468500Y-42862500D01*
X192468500Y-41529000D02*
X192468500Y-42799000D01*
D11*
X202025428Y-57221380D02*
X201692095Y-56745190D01*
X201454000Y-57221380D02*
X201454000Y-56221380D01*
X201834952Y-56221380D01*
X201930190Y-56269000D01*
X201977809Y-56316619D01*
X202025428Y-56411857D01*
X202025428Y-56554714D01*
X201977809Y-56649952D01*
X201930190Y-56697571D01*
X201834952Y-56745190D01*
X201454000Y-56745190D01*
X202454000Y-56697571D02*
X202787333Y-56697571D01*
X202930190Y-57221380D02*
X202454000Y-57221380D01*
X202454000Y-56221380D01*
X202930190Y-56221380D01*
X203215904Y-56221380D02*
X203549238Y-57221380D01*
X203882571Y-56221380D01*
X205501619Y-57221380D02*
X204930190Y-57221380D01*
X205215904Y-57221380D02*
X205215904Y-56221380D01*
X205120666Y-56364238D01*
X205025428Y-56459476D01*
X204930190Y-56507095D01*
X169324000Y-41092380D02*
X169324000Y-40092380D01*
X169752571Y-41092380D02*
X169752571Y-40568571D01*
X169704952Y-40473333D01*
X169609714Y-40425714D01*
X169466857Y-40425714D01*
X169371619Y-40473333D01*
X169324000Y-40520952D01*
X170085904Y-40425714D02*
X170466857Y-40425714D01*
X170228761Y-40092380D02*
X170228761Y-40949523D01*
X170276380Y-41044761D01*
X170371619Y-41092380D01*
X170466857Y-41092380D01*
X170657333Y-40425714D02*
X171038285Y-40425714D01*
X170800190Y-40092380D02*
X170800190Y-40949523D01*
X170847809Y-41044761D01*
X170943047Y-41092380D01*
X171038285Y-41092380D01*
X171371619Y-40425714D02*
X171371619Y-41425714D01*
X171371619Y-40473333D02*
X171466857Y-40425714D01*
X171657333Y-40425714D01*
X171752571Y-40473333D01*
X171800190Y-40520952D01*
X171847809Y-40616190D01*
X171847809Y-40901904D01*
X171800190Y-40997142D01*
X171752571Y-41044761D01*
X171657333Y-41092380D01*
X171466857Y-41092380D01*
X171371619Y-41044761D01*
X172228761Y-41044761D02*
X172324000Y-41092380D01*
X172514476Y-41092380D01*
X172609714Y-41044761D01*
X172657333Y-40949523D01*
X172657333Y-40901904D01*
X172609714Y-40806666D01*
X172514476Y-40759047D01*
X172371619Y-40759047D01*
X172276380Y-40711428D01*
X172228761Y-40616190D01*
X172228761Y-40568571D01*
X172276380Y-40473333D01*
X172371619Y-40425714D01*
X172514476Y-40425714D01*
X172609714Y-40473333D01*
X173085904Y-40997142D02*
X173133523Y-41044761D01*
X173085904Y-41092380D01*
X173038285Y-41044761D01*
X173085904Y-40997142D01*
X173085904Y-41092380D01*
X173085904Y-40473333D02*
X173133523Y-40520952D01*
X173085904Y-40568571D01*
X173038285Y-40520952D01*
X173085904Y-40473333D01*
X173085904Y-40568571D01*
X174276380Y-40044761D02*
X173419238Y-41330476D01*
X175324000Y-40044761D02*
X174466857Y-41330476D01*
X175514476Y-40425714D02*
X175895428Y-40425714D01*
X175657333Y-40092380D02*
X175657333Y-40949523D01*
X175704952Y-41044761D01*
X175800190Y-41092380D01*
X175895428Y-41092380D01*
X176609714Y-41044761D02*
X176514476Y-41092380D01*
X176324000Y-41092380D01*
X176228761Y-41044761D01*
X176181142Y-40949523D01*
X176181142Y-40568571D01*
X176228761Y-40473333D01*
X176324000Y-40425714D01*
X176514476Y-40425714D01*
X176609714Y-40473333D01*
X176657333Y-40568571D01*
X176657333Y-40663809D01*
X176181142Y-40759047D01*
X177514476Y-41044761D02*
X177419238Y-41092380D01*
X177228761Y-41092380D01*
X177133523Y-41044761D01*
X177085904Y-40997142D01*
X177038285Y-40901904D01*
X177038285Y-40616190D01*
X177085904Y-40520952D01*
X177133523Y-40473333D01*
X177228761Y-40425714D01*
X177419238Y-40425714D01*
X177514476Y-40473333D01*
X177943047Y-41092380D02*
X177943047Y-40092380D01*
X178038285Y-40711428D02*
X178324000Y-41092380D01*
X178324000Y-40425714D02*
X177943047Y-40806666D01*
X178752571Y-40425714D02*
X178752571Y-41092380D01*
X178752571Y-40520952D02*
X178800190Y-40473333D01*
X178895428Y-40425714D01*
X179038285Y-40425714D01*
X179133523Y-40473333D01*
X179181142Y-40568571D01*
X179181142Y-41092380D01*
X179800190Y-41092380D02*
X179704952Y-41044761D01*
X179657333Y-40997142D01*
X179609714Y-40901904D01*
X179609714Y-40616190D01*
X179657333Y-40520952D01*
X179704952Y-40473333D01*
X179800190Y-40425714D01*
X179943047Y-40425714D01*
X180038285Y-40473333D01*
X180085904Y-40520952D01*
X180133523Y-40616190D01*
X180133523Y-40901904D01*
X180085904Y-40997142D01*
X180038285Y-41044761D01*
X179943047Y-41092380D01*
X179800190Y-41092380D01*
X180704952Y-41092380D02*
X180609714Y-41044761D01*
X180562095Y-40949523D01*
X180562095Y-40092380D01*
X181228761Y-41092380D02*
X181133523Y-41044761D01*
X181085904Y-40997142D01*
X181038285Y-40901904D01*
X181038285Y-40616190D01*
X181085904Y-40520952D01*
X181133523Y-40473333D01*
X181228761Y-40425714D01*
X181371619Y-40425714D01*
X181466857Y-40473333D01*
X181514476Y-40520952D01*
X181562095Y-40616190D01*
X181562095Y-40901904D01*
X181514476Y-40997142D01*
X181466857Y-41044761D01*
X181371619Y-41092380D01*
X181228761Y-41092380D01*
X182419238Y-40425714D02*
X182419238Y-41235238D01*
X182371619Y-41330476D01*
X182324000Y-41378095D01*
X182228761Y-41425714D01*
X182085904Y-41425714D01*
X181990666Y-41378095D01*
X182419238Y-41044761D02*
X182324000Y-41092380D01*
X182133523Y-41092380D01*
X182038285Y-41044761D01*
X181990666Y-40997142D01*
X181943047Y-40901904D01*
X181943047Y-40616190D01*
X181990666Y-40520952D01*
X182038285Y-40473333D01*
X182133523Y-40425714D01*
X182324000Y-40425714D01*
X182419238Y-40473333D01*
X183324000Y-40425714D02*
X183324000Y-41235238D01*
X183276380Y-41330476D01*
X183228761Y-41378095D01*
X183133523Y-41425714D01*
X182990666Y-41425714D01*
X182895428Y-41378095D01*
X183324000Y-41044761D02*
X183228761Y-41092380D01*
X183038285Y-41092380D01*
X182943047Y-41044761D01*
X182895428Y-40997142D01*
X182847809Y-40901904D01*
X182847809Y-40616190D01*
X182895428Y-40520952D01*
X182943047Y-40473333D01*
X183038285Y-40425714D01*
X183228761Y-40425714D01*
X183324000Y-40473333D01*
X183800190Y-40997142D02*
X183847809Y-41044761D01*
X183800190Y-41092380D01*
X183752571Y-41044761D01*
X183800190Y-40997142D01*
X183800190Y-41092380D01*
X184181142Y-40425714D02*
X184371619Y-41092380D01*
X184562095Y-40616190D01*
X184752571Y-41092380D01*
X184943047Y-40425714D01*
X185704952Y-41044761D02*
X185609714Y-41092380D01*
X185419238Y-41092380D01*
X185324000Y-41044761D01*
X185276380Y-40949523D01*
X185276380Y-40568571D01*
X185324000Y-40473333D01*
X185419238Y-40425714D01*
X185609714Y-40425714D01*
X185704952Y-40473333D01*
X185752571Y-40568571D01*
X185752571Y-40663809D01*
X185276380Y-40759047D01*
X186181142Y-41092380D02*
X186181142Y-40092380D01*
X186181142Y-40473333D02*
X186276380Y-40425714D01*
X186466857Y-40425714D01*
X186562095Y-40473333D01*
X186609714Y-40520952D01*
X186657333Y-40616190D01*
X186657333Y-40901904D01*
X186609714Y-40997142D01*
X186562095Y-41044761D01*
X186466857Y-41092380D01*
X186276380Y-41092380D01*
X186181142Y-41044761D01*
X187038285Y-41044761D02*
X187133523Y-41092380D01*
X187324000Y-41092380D01*
X187419238Y-41044761D01*
X187466857Y-40949523D01*
X187466857Y-40901904D01*
X187419238Y-40806666D01*
X187324000Y-40759047D01*
X187181142Y-40759047D01*
X187085904Y-40711428D01*
X187038285Y-40616190D01*
X187038285Y-40568571D01*
X187085904Y-40473333D01*
X187181142Y-40425714D01*
X187324000Y-40425714D01*
X187419238Y-40473333D01*
X187895428Y-41092380D02*
X187895428Y-40425714D01*
X187895428Y-40092380D02*
X187847809Y-40140000D01*
X187895428Y-40187619D01*
X187943047Y-40140000D01*
X187895428Y-40092380D01*
X187895428Y-40187619D01*
X188228761Y-40425714D02*
X188609714Y-40425714D01*
X188371619Y-40092380D02*
X188371619Y-40949523D01*
X188419238Y-41044761D01*
X188514476Y-41092380D01*
X188609714Y-41092380D01*
X189324000Y-41044761D02*
X189228761Y-41092380D01*
X189038285Y-41092380D01*
X188943047Y-41044761D01*
X188895428Y-40949523D01*
X188895428Y-40568571D01*
X188943047Y-40473333D01*
X189038285Y-40425714D01*
X189228761Y-40425714D01*
X189324000Y-40473333D01*
X189371619Y-40568571D01*
X189371619Y-40663809D01*
X188895428Y-40759047D01*
D12*
X191146976Y-57376190D02*
X190980309Y-57138095D01*
X190861261Y-57376190D02*
X190861261Y-56876190D01*
X191051738Y-56876190D01*
X191099357Y-56900000D01*
X191123166Y-56923809D01*
X191146976Y-56971428D01*
X191146976Y-57042857D01*
X191123166Y-57090476D01*
X191099357Y-57114285D01*
X191051738Y-57138095D01*
X190861261Y-57138095D01*
X191337452Y-56923809D02*
X191361261Y-56900000D01*
X191408880Y-56876190D01*
X191527928Y-56876190D01*
X191575547Y-56900000D01*
X191599357Y-56923809D01*
X191623166Y-56971428D01*
X191623166Y-57019047D01*
X191599357Y-57090476D01*
X191313642Y-57376190D01*
X191623166Y-57376190D01*
X191789833Y-56876190D02*
X192099357Y-56876190D01*
X191932690Y-57066666D01*
X192004119Y-57066666D01*
X192051738Y-57090476D01*
X192075547Y-57114285D01*
X192099357Y-57161904D01*
X192099357Y-57280952D01*
X192075547Y-57328571D01*
X192051738Y-57352380D01*
X192004119Y-57376190D01*
X191861261Y-57376190D01*
X191813642Y-57352380D01*
X191789833Y-57328571D01*
X192289833Y-56923809D02*
X192313642Y-56900000D01*
X192361261Y-56876190D01*
X192480309Y-56876190D01*
X192527928Y-56900000D01*
X192551738Y-56923809D01*
X192575547Y-56971428D01*
X192575547Y-57019047D01*
X192551738Y-57090476D01*
X192266023Y-57376190D01*
X192575547Y-57376190D01*
X188829190Y-57376190D02*
X188662523Y-57138095D01*
X188543476Y-57376190D02*
X188543476Y-56876190D01*
X188733952Y-56876190D01*
X188781571Y-56900000D01*
X188805380Y-56923809D01*
X188829190Y-56971428D01*
X188829190Y-57042857D01*
X188805380Y-57090476D01*
X188781571Y-57114285D01*
X188733952Y-57138095D01*
X188543476Y-57138095D01*
X188972047Y-56876190D02*
X189257761Y-56876190D01*
X189114904Y-57376190D02*
X189114904Y-56876190D01*
X189400619Y-57352380D02*
X189472047Y-57376190D01*
X189591095Y-57376190D01*
X189638714Y-57352380D01*
X189662523Y-57328571D01*
X189686333Y-57280952D01*
X189686333Y-57233333D01*
X189662523Y-57185714D01*
X189638714Y-57161904D01*
X189591095Y-57138095D01*
X189495857Y-57114285D01*
X189448238Y-57090476D01*
X189424428Y-57066666D01*
X189400619Y-57019047D01*
X189400619Y-56971428D01*
X189424428Y-56923809D01*
X189448238Y-56900000D01*
X189495857Y-56876190D01*
X189614904Y-56876190D01*
X189686333Y-56900000D01*
X185868547Y-57376190D02*
X185868547Y-56876190D01*
X185987595Y-56876190D01*
X186059023Y-56900000D01*
X186106642Y-56947619D01*
X186130452Y-56995238D01*
X186154261Y-57090476D01*
X186154261Y-57161904D01*
X186130452Y-57257142D01*
X186106642Y-57304761D01*
X186059023Y-57352380D01*
X185987595Y-57376190D01*
X185868547Y-57376190D01*
X186654261Y-57328571D02*
X186630452Y-57352380D01*
X186559023Y-57376190D01*
X186511404Y-57376190D01*
X186439976Y-57352380D01*
X186392357Y-57304761D01*
X186368547Y-57257142D01*
X186344738Y-57161904D01*
X186344738Y-57090476D01*
X186368547Y-56995238D01*
X186392357Y-56947619D01*
X186439976Y-56900000D01*
X186511404Y-56876190D01*
X186559023Y-56876190D01*
X186630452Y-56900000D01*
X186654261Y-56923809D01*
X186868547Y-57376190D02*
X186868547Y-56876190D01*
X186987595Y-56876190D01*
X187059023Y-56900000D01*
X187106642Y-56947619D01*
X187130452Y-56995238D01*
X187154261Y-57090476D01*
X187154261Y-57161904D01*
X187130452Y-57257142D01*
X187106642Y-57304761D01*
X187059023Y-57352380D01*
X186987595Y-57376190D01*
X186868547Y-57376190D01*
X184058714Y-57376190D02*
X183892047Y-57138095D01*
X183773000Y-57376190D02*
X183773000Y-56876190D01*
X183963476Y-56876190D01*
X184011095Y-56900000D01*
X184034904Y-56923809D01*
X184058714Y-56971428D01*
X184058714Y-57042857D01*
X184034904Y-57090476D01*
X184011095Y-57114285D01*
X183963476Y-57138095D01*
X183773000Y-57138095D01*
X184273000Y-57376190D02*
X184273000Y-56876190D01*
X180863952Y-57376190D02*
X180863952Y-56876190D01*
X180983000Y-56876190D01*
X181054428Y-56900000D01*
X181102047Y-56947619D01*
X181125857Y-56995238D01*
X181149666Y-57090476D01*
X181149666Y-57161904D01*
X181125857Y-57257142D01*
X181102047Y-57304761D01*
X181054428Y-57352380D01*
X180983000Y-57376190D01*
X180863952Y-57376190D01*
X181340142Y-57352380D02*
X181411571Y-57376190D01*
X181530619Y-57376190D01*
X181578238Y-57352380D01*
X181602047Y-57328571D01*
X181625857Y-57280952D01*
X181625857Y-57233333D01*
X181602047Y-57185714D01*
X181578238Y-57161904D01*
X181530619Y-57138095D01*
X181435380Y-57114285D01*
X181387761Y-57090476D01*
X181363952Y-57066666D01*
X181340142Y-57019047D01*
X181340142Y-56971428D01*
X181363952Y-56923809D01*
X181387761Y-56900000D01*
X181435380Y-56876190D01*
X181554428Y-56876190D01*
X181625857Y-56900000D01*
X182125857Y-57376190D02*
X181959190Y-57138095D01*
X181840142Y-57376190D02*
X181840142Y-56876190D01*
X182030619Y-56876190D01*
X182078238Y-56900000D01*
X182102047Y-56923809D01*
X182125857Y-56971428D01*
X182125857Y-57042857D01*
X182102047Y-57090476D01*
X182078238Y-57114285D01*
X182030619Y-57138095D01*
X181840142Y-57138095D01*
D11*
X170453500Y-54261666D02*
X170453500Y-54828333D01*
X170486833Y-54895000D01*
X170520166Y-54928333D01*
X170586833Y-54961666D01*
X170720166Y-54961666D01*
X170786833Y-54928333D01*
X170820166Y-54895000D01*
X170853500Y-54828333D01*
X170853500Y-54261666D01*
X171153500Y-54928333D02*
X171253500Y-54961666D01*
X171420166Y-54961666D01*
X171486833Y-54928333D01*
X171520166Y-54895000D01*
X171553500Y-54828333D01*
X171553500Y-54761666D01*
X171520166Y-54695000D01*
X171486833Y-54661666D01*
X171420166Y-54628333D01*
X171286833Y-54595000D01*
X171220166Y-54561666D01*
X171186833Y-54528333D01*
X171153500Y-54461666D01*
X171153500Y-54395000D01*
X171186833Y-54328333D01*
X171220166Y-54295000D01*
X171286833Y-54261666D01*
X171453500Y-54261666D01*
X171553500Y-54295000D01*
X172086833Y-54595000D02*
X172186833Y-54628333D01*
X172220166Y-54661666D01*
X172253500Y-54728333D01*
X172253500Y-54828333D01*
X172220166Y-54895000D01*
X172186833Y-54928333D01*
X172120166Y-54961666D01*
X171853500Y-54961666D01*
X171853500Y-54261666D01*
X172086833Y-54261666D01*
X172153500Y-54295000D01*
X172186833Y-54328333D01*
X172220166Y-54395000D01*
X172220166Y-54461666D01*
X172186833Y-54528333D01*
X172153500Y-54561666D01*
X172086833Y-54595000D01*
X171853500Y-54595000D01*
X172986833Y-54261666D02*
X173386833Y-54261666D01*
X173186833Y-54961666D02*
X173186833Y-54261666D01*
X173753500Y-54261666D02*
X173886833Y-54261666D01*
X173953500Y-54295000D01*
X174020166Y-54361666D01*
X174053500Y-54495000D01*
X174053500Y-54728333D01*
X174020166Y-54861666D01*
X173953500Y-54928333D01*
X173886833Y-54961666D01*
X173753500Y-54961666D01*
X173686833Y-54928333D01*
X173620166Y-54861666D01*
X173586833Y-54728333D01*
X173586833Y-54495000D01*
X173620166Y-54361666D01*
X173686833Y-54295000D01*
X173753500Y-54261666D01*
X174886833Y-54261666D02*
X174886833Y-54828333D01*
X174920166Y-54895000D01*
X174953500Y-54928333D01*
X175020166Y-54961666D01*
X175153500Y-54961666D01*
X175220166Y-54928333D01*
X175253500Y-54895000D01*
X175286833Y-54828333D01*
X175286833Y-54261666D01*
X175586833Y-54761666D02*
X175920166Y-54761666D01*
X175520166Y-54961666D02*
X175753500Y-54261666D01*
X175986833Y-54961666D01*
X176620166Y-54961666D02*
X176386833Y-54628333D01*
X176220166Y-54961666D02*
X176220166Y-54261666D01*
X176486833Y-54261666D01*
X176553500Y-54295000D01*
X176586833Y-54328333D01*
X176620166Y-54395000D01*
X176620166Y-54495000D01*
X176586833Y-54561666D01*
X176553500Y-54595000D01*
X176486833Y-54628333D01*
X176220166Y-54628333D01*
X176820166Y-54261666D02*
X177220166Y-54261666D01*
X177020166Y-54961666D02*
X177020166Y-54261666D01*
X172570166Y-55795000D02*
X172670166Y-55828333D01*
X172703500Y-55861666D01*
X172736833Y-55928333D01*
X172736833Y-56028333D01*
X172703500Y-56095000D01*
X172670166Y-56128333D01*
X172603500Y-56161666D01*
X172336833Y-56161666D01*
X172336833Y-55461666D01*
X172570166Y-55461666D01*
X172636833Y-55495000D01*
X172670166Y-55528333D01*
X172703500Y-55595000D01*
X172703500Y-55661666D01*
X172670166Y-55728333D01*
X172636833Y-55761666D01*
X172570166Y-55795000D01*
X172336833Y-55795000D01*
X173436833Y-56161666D02*
X173203500Y-55828333D01*
X173036833Y-56161666D02*
X173036833Y-55461666D01*
X173303500Y-55461666D01*
X173370166Y-55495000D01*
X173403500Y-55528333D01*
X173436833Y-55595000D01*
X173436833Y-55695000D01*
X173403500Y-55761666D01*
X173370166Y-55795000D01*
X173303500Y-55828333D01*
X173036833Y-55828333D01*
X173736833Y-56161666D02*
X173736833Y-55461666D01*
X174070166Y-56161666D02*
X174070166Y-55461666D01*
X174236833Y-55461666D01*
X174336833Y-55495000D01*
X174403500Y-55561666D01*
X174436833Y-55628333D01*
X174470166Y-55761666D01*
X174470166Y-55861666D01*
X174436833Y-55995000D01*
X174403500Y-56061666D01*
X174336833Y-56128333D01*
X174236833Y-56161666D01*
X174070166Y-56161666D01*
X175136833Y-55495000D02*
X175070166Y-55461666D01*
X174970166Y-55461666D01*
X174870166Y-55495000D01*
X174803500Y-55561666D01*
X174770166Y-55628333D01*
X174736833Y-55761666D01*
X174736833Y-55861666D01*
X174770166Y-55995000D01*
X174803500Y-56061666D01*
X174870166Y-56128333D01*
X174970166Y-56161666D01*
X175036833Y-56161666D01*
X175136833Y-56128333D01*
X175170166Y-56095000D01*
X175170166Y-55861666D01*
X175036833Y-55861666D01*
X175470166Y-55795000D02*
X175703500Y-55795000D01*
X175803500Y-56161666D02*
X175470166Y-56161666D01*
X175470166Y-55461666D01*
X175803500Y-55461666D01*
D10*
X191833500Y-41910000D02*
X191833500Y-41529000D01*
X189865000Y-41910000D02*
X191833500Y-41910000D01*
X189865000Y-40894000D02*
X189865000Y-41910000D01*
X191833500Y-40894000D02*
X189865000Y-40894000D01*
X191833500Y-41529000D02*
X191833500Y-40894000D01*
X193675000Y-41529000D02*
X191833500Y-41529000D01*
X198183500Y-43561000D02*
X198945500Y-43561000D01*
X198183500Y-44577000D02*
X198183500Y-43561000D01*
X200914000Y-44577000D02*
X198183500Y-44577000D01*
X200914000Y-43561000D02*
X200914000Y-44577000D01*
X198882000Y-43561000D02*
X200914000Y-43561000D01*
X198882000Y-41529000D02*
X198882000Y-43561000D01*
D12*
X190111142Y-41501214D02*
X190492095Y-41501214D01*
X190301619Y-41691690D02*
X190301619Y-41310738D01*
X190968285Y-41191690D02*
X190730190Y-41191690D01*
X190706380Y-41429785D01*
X190730190Y-41405976D01*
X190777809Y-41382166D01*
X190896857Y-41382166D01*
X190944476Y-41405976D01*
X190968285Y-41429785D01*
X190992095Y-41477404D01*
X190992095Y-41596452D01*
X190968285Y-41644071D01*
X190944476Y-41667880D01*
X190896857Y-41691690D01*
X190777809Y-41691690D01*
X190730190Y-41667880D01*
X190706380Y-41644071D01*
X191134952Y-41191690D02*
X191301619Y-41691690D01*
X191468285Y-41191690D01*
X198453500Y-44104714D02*
X198834452Y-44104714D01*
X198643976Y-44295190D02*
X198643976Y-43914238D01*
X199024928Y-43795190D02*
X199334452Y-43795190D01*
X199167785Y-43985666D01*
X199239214Y-43985666D01*
X199286833Y-44009476D01*
X199310642Y-44033285D01*
X199334452Y-44080904D01*
X199334452Y-44199952D01*
X199310642Y-44247571D01*
X199286833Y-44271380D01*
X199239214Y-44295190D01*
X199096357Y-44295190D01*
X199048738Y-44271380D01*
X199024928Y-44247571D01*
X199548738Y-44247571D02*
X199572547Y-44271380D01*
X199548738Y-44295190D01*
X199524928Y-44271380D01*
X199548738Y-44247571D01*
X199548738Y-44295190D01*
X199739214Y-43795190D02*
X200048738Y-43795190D01*
X199882071Y-43985666D01*
X199953500Y-43985666D01*
X200001119Y-44009476D01*
X200024928Y-44033285D01*
X200048738Y-44080904D01*
X200048738Y-44199952D01*
X200024928Y-44247571D01*
X200001119Y-44271380D01*
X199953500Y-44295190D01*
X199810642Y-44295190D01*
X199763023Y-44271380D01*
X199739214Y-44247571D01*
X200191595Y-43795190D02*
X200358261Y-44295190D01*
X200524928Y-43795190D01*
X201866571Y-54074190D02*
X201866571Y-53574190D01*
X201985619Y-53574190D01*
X202057047Y-53598000D01*
X202104666Y-53645619D01*
X202128476Y-53693238D01*
X202152285Y-53788476D01*
X202152285Y-53859904D01*
X202128476Y-53955142D01*
X202104666Y-54002761D01*
X202057047Y-54050380D01*
X201985619Y-54074190D01*
X201866571Y-54074190D01*
X202295142Y-53574190D02*
X202580857Y-53574190D01*
X202438000Y-54074190D02*
X202438000Y-53574190D01*
X203033238Y-54074190D02*
X202866571Y-53836095D01*
X202747523Y-54074190D02*
X202747523Y-53574190D01*
X202938000Y-53574190D01*
X202985619Y-53598000D01*
X203009428Y-53621809D01*
X203033238Y-53669428D01*
X203033238Y-53740857D01*
X203009428Y-53788476D01*
X202985619Y-53812285D01*
X202938000Y-53836095D01*
X202747523Y-53836095D01*
X202418166Y-51343690D02*
X202251500Y-51105595D01*
X202132452Y-51343690D02*
X202132452Y-50843690D01*
X202322928Y-50843690D01*
X202370547Y-50867500D01*
X202394357Y-50891309D01*
X202418166Y-50938928D01*
X202418166Y-51010357D01*
X202394357Y-51057976D01*
X202370547Y-51081785D01*
X202322928Y-51105595D01*
X202132452Y-51105595D01*
X202584833Y-50843690D02*
X202918166Y-51343690D01*
X202918166Y-50843690D02*
X202584833Y-51343690D01*
X202120547Y-48367190D02*
X202406261Y-48367190D01*
X202263404Y-48867190D02*
X202263404Y-48367190D01*
X202525309Y-48367190D02*
X202858642Y-48867190D01*
X202858642Y-48367190D02*
X202525309Y-48867190D01*
X201771333Y-45827190D02*
X201938000Y-46327190D01*
X202104666Y-45827190D01*
X202557047Y-46279571D02*
X202533238Y-46303380D01*
X202461809Y-46327190D01*
X202414190Y-46327190D01*
X202342761Y-46303380D01*
X202295142Y-46255761D01*
X202271333Y-46208142D01*
X202247523Y-46112904D01*
X202247523Y-46041476D01*
X202271333Y-45946238D01*
X202295142Y-45898619D01*
X202342761Y-45851000D01*
X202414190Y-45827190D01*
X202461809Y-45827190D01*
X202533238Y-45851000D01*
X202557047Y-45874809D01*
X203057047Y-46279571D02*
X203033238Y-46303380D01*
X202961809Y-46327190D01*
X202914190Y-46327190D01*
X202842761Y-46303380D01*
X202795142Y-46255761D01*
X202771333Y-46208142D01*
X202747523Y-46112904D01*
X202747523Y-46041476D01*
X202771333Y-45946238D01*
X202795142Y-45898619D01*
X202842761Y-45851000D01*
X202914190Y-45827190D01*
X202961809Y-45827190D01*
X203033238Y-45851000D01*
X203057047Y-45874809D01*
X202291190Y-43676071D02*
X202267380Y-43699880D01*
X202195952Y-43723690D01*
X202148333Y-43723690D01*
X202076904Y-43699880D01*
X202029285Y-43652261D01*
X202005476Y-43604642D01*
X201981666Y-43509404D01*
X201981666Y-43437976D01*
X202005476Y-43342738D01*
X202029285Y-43295119D01*
X202076904Y-43247500D01*
X202148333Y-43223690D01*
X202195952Y-43223690D01*
X202267380Y-43247500D01*
X202291190Y-43271309D01*
X202434047Y-43223690D02*
X202719761Y-43223690D01*
X202576904Y-43723690D02*
X202576904Y-43223690D01*
X202862619Y-43699880D02*
X202934047Y-43723690D01*
X203053095Y-43723690D01*
X203100714Y-43699880D01*
X203124523Y-43676071D01*
X203148333Y-43628452D01*
X203148333Y-43580833D01*
X203124523Y-43533214D01*
X203100714Y-43509404D01*
X203053095Y-43485595D01*
X202957857Y-43461785D01*
X202910238Y-43437976D01*
X202886428Y-43414166D01*
X202862619Y-43366547D01*
X202862619Y-43318928D01*
X202886428Y-43271309D01*
X202910238Y-43247500D01*
X202957857Y-43223690D01*
X203076904Y-43223690D01*
X203148333Y-43247500D01*
X202184047Y-40771000D02*
X202136428Y-40747190D01*
X202065000Y-40747190D01*
X201993571Y-40771000D01*
X201945952Y-40818619D01*
X201922142Y-40866238D01*
X201898333Y-40961476D01*
X201898333Y-41032904D01*
X201922142Y-41128142D01*
X201945952Y-41175761D01*
X201993571Y-41223380D01*
X202065000Y-41247190D01*
X202112619Y-41247190D01*
X202184047Y-41223380D01*
X202207857Y-41199571D01*
X202207857Y-41032904D01*
X202112619Y-41032904D01*
X202422142Y-41247190D02*
X202422142Y-40747190D01*
X202707857Y-41247190D01*
X202707857Y-40747190D01*
X202945952Y-41247190D02*
X202945952Y-40747190D01*
X203065000Y-40747190D01*
X203136428Y-40771000D01*
X203184047Y-40818619D01*
X203207857Y-40866238D01*
X203231666Y-40961476D01*
X203231666Y-41032904D01*
X203207857Y-41128142D01*
X203184047Y-41175761D01*
X203136428Y-41223380D01*
X203065000Y-41247190D01*
X202945952Y-41247190D01*
X192952976Y-43731690D02*
X193119642Y-44231690D01*
X193286309Y-43731690D01*
X193738690Y-44184071D02*
X193714880Y-44207880D01*
X193643452Y-44231690D01*
X193595833Y-44231690D01*
X193524404Y-44207880D01*
X193476785Y-44160261D01*
X193452976Y-44112642D01*
X193429166Y-44017404D01*
X193429166Y-43945976D01*
X193452976Y-43850738D01*
X193476785Y-43803119D01*
X193524404Y-43755500D01*
X193595833Y-43731690D01*
X193643452Y-43731690D01*
X193714880Y-43755500D01*
X193738690Y-43779309D01*
X194238690Y-44184071D02*
X194214880Y-44207880D01*
X194143452Y-44231690D01*
X194095833Y-44231690D01*
X194024404Y-44207880D01*
X193976785Y-44160261D01*
X193952976Y-44112642D01*
X193929166Y-44017404D01*
X193929166Y-43945976D01*
X193952976Y-43850738D01*
X193976785Y-43803119D01*
X194024404Y-43755500D01*
X194095833Y-43731690D01*
X194143452Y-43731690D01*
X194214880Y-43755500D01*
X194238690Y-43779309D01*
X194452976Y-44041214D02*
X194833928Y-44041214D01*
X195048214Y-44207880D02*
X195119642Y-44231690D01*
X195238690Y-44231690D01*
X195286309Y-44207880D01*
X195310119Y-44184071D01*
X195333928Y-44136452D01*
X195333928Y-44088833D01*
X195310119Y-44041214D01*
X195286309Y-44017404D01*
X195238690Y-43993595D01*
X195143452Y-43969785D01*
X195095833Y-43945976D01*
X195072023Y-43922166D01*
X195048214Y-43874547D01*
X195048214Y-43826928D01*
X195072023Y-43779309D01*
X195095833Y-43755500D01*
X195143452Y-43731690D01*
X195262500Y-43731690D01*
X195333928Y-43755500D01*
X195548214Y-43969785D02*
X195714880Y-43969785D01*
X195786309Y-44231690D02*
X195548214Y-44231690D01*
X195548214Y-43731690D01*
X195786309Y-43731690D01*
X196238690Y-44231690D02*
X196000595Y-44231690D01*
X196000595Y-43731690D01*
X196405357Y-43969785D02*
X196572023Y-43969785D01*
X196643452Y-44231690D02*
X196405357Y-44231690D01*
X196405357Y-43731690D01*
X196643452Y-43731690D01*
X197143452Y-44184071D02*
X197119642Y-44207880D01*
X197048214Y-44231690D01*
X197000595Y-44231690D01*
X196929166Y-44207880D01*
X196881547Y-44160261D01*
X196857738Y-44112642D01*
X196833928Y-44017404D01*
X196833928Y-43945976D01*
X196857738Y-43850738D01*
X196881547Y-43803119D01*
X196929166Y-43755500D01*
X197000595Y-43731690D01*
X197048214Y-43731690D01*
X197119642Y-43755500D01*
X197143452Y-43779309D01*
X197286309Y-43731690D02*
X197572023Y-43731690D01*
X197429166Y-44231690D02*
X197429166Y-43731690D01*
D10*
%TO.C,J4*%
X180153000Y-56194000D02*
X180153000Y-54864000D01*
X181483000Y-56194000D02*
X180153000Y-56194000D01*
X182753000Y-56194000D02*
X182753000Y-53534000D01*
X182753000Y-53534000D02*
X192973000Y-53534000D01*
X182753000Y-56194000D02*
X192973000Y-56194000D01*
X192973000Y-56194000D02*
X192973000Y-53534000D01*
%TO.C,U1*%
X181439500Y-47180500D02*
X181439500Y-49130500D01*
X181439500Y-47180500D02*
X181439500Y-45230500D01*
X191559500Y-47180500D02*
X191559500Y-49130500D01*
X191559500Y-47180500D02*
X191559500Y-43730500D01*
%TO.C,J2*%
X192472000Y-41529000D02*
X192472000Y-40199000D01*
X192472000Y-40199000D02*
X193802000Y-40199000D01*
X195072000Y-40199000D02*
X200212000Y-40199000D01*
X200212000Y-42859000D02*
X200212000Y-40199000D01*
X195072000Y-42859000D02*
X200212000Y-42859000D01*
X195072000Y-42859000D02*
X195072000Y-40199000D01*
%TO.C,J3*%
X205232000Y-39627500D02*
X206562000Y-39627500D01*
X206562000Y-39627500D02*
X206562000Y-40957500D01*
X206562000Y-42227500D02*
X206562000Y-54987500D01*
X203902000Y-54987500D02*
X206562000Y-54987500D01*
X203902000Y-42227500D02*
X203902000Y-54987500D01*
X203902000Y-42227500D02*
X206562000Y-42227500D01*
%TO.C,J1*%
X168566000Y-42353500D02*
X168566000Y-51753500D01*
X174366000Y-51753500D02*
X172366000Y-51753500D01*
X170466000Y-51753500D02*
X168566000Y-51753500D01*
X174366000Y-42353500D02*
X172366000Y-42353500D01*
X170466000Y-42353500D02*
X168566000Y-42353500D01*
%TO.C,F1*%
X178414000Y-50070936D02*
X178414000Y-51275064D01*
X180234000Y-50070936D02*
X180234000Y-51275064D01*
%TO.C,D2*%
X198093000Y-48538500D02*
X198093000Y-46253500D01*
X196623000Y-48538500D02*
X198093000Y-48538500D01*
X196623000Y-46253500D02*
X196623000Y-48538500D01*
%TO.C,D1*%
X196623000Y-48743500D02*
X196623000Y-51028500D01*
X198093000Y-48743500D02*
X196623000Y-48743500D01*
X198093000Y-51028500D02*
X198093000Y-48743500D01*
%TO.C,C2*%
X179351721Y-42991500D02*
X179677279Y-42991500D01*
X179351721Y-41971500D02*
X179677279Y-41971500D01*
%TO.C,C1*%
X179351721Y-44515500D02*
X179677279Y-44515500D01*
X179351721Y-43495500D02*
X179677279Y-43495500D01*
%TO.C,C6*%
X186184221Y-42991500D02*
X186509779Y-42991500D01*
X186184221Y-41971500D02*
X186509779Y-41971500D01*
%TO.C,C5*%
X188084779Y-51687000D02*
X187759221Y-51687000D01*
X188084779Y-52707000D02*
X187759221Y-52707000D01*
%TO.C,RN1*%
X194810000Y-47596000D02*
X193810000Y-47596000D01*
X194810000Y-50956000D02*
X193810000Y-50956000D01*
%TD*%
M02*
