%TF.GenerationSoftware,KiCad,Pcbnew,(5.1.6)-1*%
%TF.CreationDate,2020-06-26T00:22:11+04:00*%
%TF.ProjectId,ch340c-progarmmer,63683334-3063-42d7-9072-6f6761726d6d,rev?*%
%TF.SameCoordinates,Original*%
%TF.FileFunction,Soldermask,Top*%
%TF.FilePolarity,Negative*%
%FSLAX46Y46*%
G04 Gerber Fmt 4.6, Leading zero omitted, Abs format (unit mm)*
G04 Created by KiCad (PCBNEW (5.1.6)-1) date 2020-06-26 00:22:11*
%MOMM*%
%LPD*%
G01*
G04 APERTURE LIST*
%ADD10O,1.800000X1.800000*%
%ADD11R,1.800000X1.800000*%
%ADD12R,1.550000X0.700000*%
%ADD13R,1.550000X0.400000*%
%ADD14O,2.200000X1.100000*%
%ADD15C,0.750000*%
%ADD16O,1.700000X1.100000*%
%ADD17R,0.900000X0.600000*%
%ADD18R,0.900000X0.500000*%
G04 APERTURE END LIST*
D10*
%TO.C,J4*%
X191643000Y-54864000D03*
X189103000Y-54864000D03*
X186563000Y-54864000D03*
X184023000Y-54864000D03*
D11*
X181483000Y-54864000D03*
%TD*%
%TO.C,U1*%
G36*
G01*
X190769500Y-43680500D02*
X191119500Y-43680500D01*
G75*
G02*
X191294500Y-43855500I0J-175000D01*
G01*
X191294500Y-45555500D01*
G75*
G02*
X191119500Y-45730500I-175000J0D01*
G01*
X190769500Y-45730500D01*
G75*
G02*
X190594500Y-45555500I0J175000D01*
G01*
X190594500Y-43855500D01*
G75*
G02*
X190769500Y-43680500I175000J0D01*
G01*
G37*
G36*
G01*
X189499500Y-43680500D02*
X189849500Y-43680500D01*
G75*
G02*
X190024500Y-43855500I0J-175000D01*
G01*
X190024500Y-45555500D01*
G75*
G02*
X189849500Y-45730500I-175000J0D01*
G01*
X189499500Y-45730500D01*
G75*
G02*
X189324500Y-45555500I0J175000D01*
G01*
X189324500Y-43855500D01*
G75*
G02*
X189499500Y-43680500I175000J0D01*
G01*
G37*
G36*
G01*
X188229500Y-43680500D02*
X188579500Y-43680500D01*
G75*
G02*
X188754500Y-43855500I0J-175000D01*
G01*
X188754500Y-45555500D01*
G75*
G02*
X188579500Y-45730500I-175000J0D01*
G01*
X188229500Y-45730500D01*
G75*
G02*
X188054500Y-45555500I0J175000D01*
G01*
X188054500Y-43855500D01*
G75*
G02*
X188229500Y-43680500I175000J0D01*
G01*
G37*
G36*
G01*
X186959500Y-43680500D02*
X187309500Y-43680500D01*
G75*
G02*
X187484500Y-43855500I0J-175000D01*
G01*
X187484500Y-45555500D01*
G75*
G02*
X187309500Y-45730500I-175000J0D01*
G01*
X186959500Y-45730500D01*
G75*
G02*
X186784500Y-45555500I0J175000D01*
G01*
X186784500Y-43855500D01*
G75*
G02*
X186959500Y-43680500I175000J0D01*
G01*
G37*
G36*
G01*
X185689500Y-43680500D02*
X186039500Y-43680500D01*
G75*
G02*
X186214500Y-43855500I0J-175000D01*
G01*
X186214500Y-45555500D01*
G75*
G02*
X186039500Y-45730500I-175000J0D01*
G01*
X185689500Y-45730500D01*
G75*
G02*
X185514500Y-45555500I0J175000D01*
G01*
X185514500Y-43855500D01*
G75*
G02*
X185689500Y-43680500I175000J0D01*
G01*
G37*
G36*
G01*
X184419500Y-43680500D02*
X184769500Y-43680500D01*
G75*
G02*
X184944500Y-43855500I0J-175000D01*
G01*
X184944500Y-45555500D01*
G75*
G02*
X184769500Y-45730500I-175000J0D01*
G01*
X184419500Y-45730500D01*
G75*
G02*
X184244500Y-45555500I0J175000D01*
G01*
X184244500Y-43855500D01*
G75*
G02*
X184419500Y-43680500I175000J0D01*
G01*
G37*
G36*
G01*
X183149500Y-43680500D02*
X183499500Y-43680500D01*
G75*
G02*
X183674500Y-43855500I0J-175000D01*
G01*
X183674500Y-45555500D01*
G75*
G02*
X183499500Y-45730500I-175000J0D01*
G01*
X183149500Y-45730500D01*
G75*
G02*
X182974500Y-45555500I0J175000D01*
G01*
X182974500Y-43855500D01*
G75*
G02*
X183149500Y-43680500I175000J0D01*
G01*
G37*
G36*
G01*
X181879500Y-43680500D02*
X182229500Y-43680500D01*
G75*
G02*
X182404500Y-43855500I0J-175000D01*
G01*
X182404500Y-45555500D01*
G75*
G02*
X182229500Y-45730500I-175000J0D01*
G01*
X181879500Y-45730500D01*
G75*
G02*
X181704500Y-45555500I0J175000D01*
G01*
X181704500Y-43855500D01*
G75*
G02*
X181879500Y-43680500I175000J0D01*
G01*
G37*
G36*
G01*
X181879500Y-48630500D02*
X182229500Y-48630500D01*
G75*
G02*
X182404500Y-48805500I0J-175000D01*
G01*
X182404500Y-50505500D01*
G75*
G02*
X182229500Y-50680500I-175000J0D01*
G01*
X181879500Y-50680500D01*
G75*
G02*
X181704500Y-50505500I0J175000D01*
G01*
X181704500Y-48805500D01*
G75*
G02*
X181879500Y-48630500I175000J0D01*
G01*
G37*
G36*
G01*
X183149500Y-48630500D02*
X183499500Y-48630500D01*
G75*
G02*
X183674500Y-48805500I0J-175000D01*
G01*
X183674500Y-50505500D01*
G75*
G02*
X183499500Y-50680500I-175000J0D01*
G01*
X183149500Y-50680500D01*
G75*
G02*
X182974500Y-50505500I0J175000D01*
G01*
X182974500Y-48805500D01*
G75*
G02*
X183149500Y-48630500I175000J0D01*
G01*
G37*
G36*
G01*
X184419500Y-48630500D02*
X184769500Y-48630500D01*
G75*
G02*
X184944500Y-48805500I0J-175000D01*
G01*
X184944500Y-50505500D01*
G75*
G02*
X184769500Y-50680500I-175000J0D01*
G01*
X184419500Y-50680500D01*
G75*
G02*
X184244500Y-50505500I0J175000D01*
G01*
X184244500Y-48805500D01*
G75*
G02*
X184419500Y-48630500I175000J0D01*
G01*
G37*
G36*
G01*
X185689500Y-48630500D02*
X186039500Y-48630500D01*
G75*
G02*
X186214500Y-48805500I0J-175000D01*
G01*
X186214500Y-50505500D01*
G75*
G02*
X186039500Y-50680500I-175000J0D01*
G01*
X185689500Y-50680500D01*
G75*
G02*
X185514500Y-50505500I0J175000D01*
G01*
X185514500Y-48805500D01*
G75*
G02*
X185689500Y-48630500I175000J0D01*
G01*
G37*
G36*
G01*
X186959500Y-48630500D02*
X187309500Y-48630500D01*
G75*
G02*
X187484500Y-48805500I0J-175000D01*
G01*
X187484500Y-50505500D01*
G75*
G02*
X187309500Y-50680500I-175000J0D01*
G01*
X186959500Y-50680500D01*
G75*
G02*
X186784500Y-50505500I0J175000D01*
G01*
X186784500Y-48805500D01*
G75*
G02*
X186959500Y-48630500I175000J0D01*
G01*
G37*
G36*
G01*
X188229500Y-48630500D02*
X188579500Y-48630500D01*
G75*
G02*
X188754500Y-48805500I0J-175000D01*
G01*
X188754500Y-50505500D01*
G75*
G02*
X188579500Y-50680500I-175000J0D01*
G01*
X188229500Y-50680500D01*
G75*
G02*
X188054500Y-50505500I0J175000D01*
G01*
X188054500Y-48805500D01*
G75*
G02*
X188229500Y-48630500I175000J0D01*
G01*
G37*
G36*
G01*
X189499500Y-48630500D02*
X189849500Y-48630500D01*
G75*
G02*
X190024500Y-48805500I0J-175000D01*
G01*
X190024500Y-50505500D01*
G75*
G02*
X189849500Y-50680500I-175000J0D01*
G01*
X189499500Y-50680500D01*
G75*
G02*
X189324500Y-50505500I0J175000D01*
G01*
X189324500Y-48805500D01*
G75*
G02*
X189499500Y-48630500I175000J0D01*
G01*
G37*
G36*
G01*
X190769500Y-48630500D02*
X191119500Y-48630500D01*
G75*
G02*
X191294500Y-48805500I0J-175000D01*
G01*
X191294500Y-50505500D01*
G75*
G02*
X191119500Y-50680500I-175000J0D01*
G01*
X190769500Y-50680500D01*
G75*
G02*
X190594500Y-50505500I0J175000D01*
G01*
X190594500Y-48805500D01*
G75*
G02*
X190769500Y-48630500I175000J0D01*
G01*
G37*
%TD*%
D10*
%TO.C,J2*%
X198882000Y-41529000D03*
X196342000Y-41529000D03*
D11*
X193802000Y-41529000D03*
%TD*%
D10*
%TO.C,J3*%
X205232000Y-53657500D03*
X205232000Y-51117500D03*
X205232000Y-48577500D03*
X205232000Y-46037500D03*
X205232000Y-43497500D03*
D11*
X205232000Y-40957500D03*
%TD*%
D12*
%TO.C,J1*%
X176511000Y-50303500D03*
X176511000Y-49503500D03*
X176511000Y-44603500D03*
X176511000Y-43803500D03*
X176511000Y-43803500D03*
X176511000Y-44603500D03*
X176511000Y-49503500D03*
X176511000Y-50303500D03*
D13*
X176511000Y-45303500D03*
X176511000Y-45803500D03*
X176511000Y-46303500D03*
X176511000Y-47303500D03*
X176511000Y-47803500D03*
X176511000Y-48303500D03*
X176511000Y-48803500D03*
X176511000Y-46803500D03*
D14*
X175596000Y-51373500D03*
X175596000Y-42733500D03*
D15*
X175066000Y-44163500D03*
D16*
X171416000Y-42733500D03*
D15*
X175066000Y-49943500D03*
D16*
X171416000Y-51373500D03*
%TD*%
%TO.C,F1*%
G36*
G01*
X178669000Y-51398000D02*
X179979000Y-51398000D01*
G75*
G02*
X180249000Y-51668000I0J-270000D01*
G01*
X180249000Y-52478000D01*
G75*
G02*
X179979000Y-52748000I-270000J0D01*
G01*
X178669000Y-52748000D01*
G75*
G02*
X178399000Y-52478000I0J270000D01*
G01*
X178399000Y-51668000D01*
G75*
G02*
X178669000Y-51398000I270000J0D01*
G01*
G37*
G36*
G01*
X178669000Y-48598000D02*
X179979000Y-48598000D01*
G75*
G02*
X180249000Y-48868000I0J-270000D01*
G01*
X180249000Y-49678000D01*
G75*
G02*
X179979000Y-49948000I-270000J0D01*
G01*
X178669000Y-49948000D01*
G75*
G02*
X178399000Y-49678000I0J270000D01*
G01*
X178399000Y-48868000D01*
G75*
G02*
X178669000Y-48598000I270000J0D01*
G01*
G37*
%TD*%
%TO.C,D2*%
G36*
G01*
X197639250Y-48328500D02*
X197076750Y-48328500D01*
G75*
G02*
X196833000Y-48084750I0J243750D01*
G01*
X196833000Y-47597250D01*
G75*
G02*
X197076750Y-47353500I243750J0D01*
G01*
X197639250Y-47353500D01*
G75*
G02*
X197883000Y-47597250I0J-243750D01*
G01*
X197883000Y-48084750D01*
G75*
G02*
X197639250Y-48328500I-243750J0D01*
G01*
G37*
G36*
G01*
X197639250Y-46753500D02*
X197076750Y-46753500D01*
G75*
G02*
X196833000Y-46509750I0J243750D01*
G01*
X196833000Y-46022250D01*
G75*
G02*
X197076750Y-45778500I243750J0D01*
G01*
X197639250Y-45778500D01*
G75*
G02*
X197883000Y-46022250I0J-243750D01*
G01*
X197883000Y-46509750D01*
G75*
G02*
X197639250Y-46753500I-243750J0D01*
G01*
G37*
%TD*%
%TO.C,D1*%
G36*
G01*
X197076750Y-50528500D02*
X197639250Y-50528500D01*
G75*
G02*
X197883000Y-50772250I0J-243750D01*
G01*
X197883000Y-51259750D01*
G75*
G02*
X197639250Y-51503500I-243750J0D01*
G01*
X197076750Y-51503500D01*
G75*
G02*
X196833000Y-51259750I0J243750D01*
G01*
X196833000Y-50772250D01*
G75*
G02*
X197076750Y-50528500I243750J0D01*
G01*
G37*
G36*
G01*
X197076750Y-48953500D02*
X197639250Y-48953500D01*
G75*
G02*
X197883000Y-49197250I0J-243750D01*
G01*
X197883000Y-49684750D01*
G75*
G02*
X197639250Y-49928500I-243750J0D01*
G01*
X197076750Y-49928500D01*
G75*
G02*
X196833000Y-49684750I0J243750D01*
G01*
X196833000Y-49197250D01*
G75*
G02*
X197076750Y-48953500I243750J0D01*
G01*
G37*
%TD*%
%TO.C,C2*%
G36*
G01*
X178239500Y-42762750D02*
X178239500Y-42200250D01*
G75*
G02*
X178483250Y-41956500I243750J0D01*
G01*
X178970750Y-41956500D01*
G75*
G02*
X179214500Y-42200250I0J-243750D01*
G01*
X179214500Y-42762750D01*
G75*
G02*
X178970750Y-43006500I-243750J0D01*
G01*
X178483250Y-43006500D01*
G75*
G02*
X178239500Y-42762750I0J243750D01*
G01*
G37*
G36*
G01*
X179814500Y-42762750D02*
X179814500Y-42200250D01*
G75*
G02*
X180058250Y-41956500I243750J0D01*
G01*
X180545750Y-41956500D01*
G75*
G02*
X180789500Y-42200250I0J-243750D01*
G01*
X180789500Y-42762750D01*
G75*
G02*
X180545750Y-43006500I-243750J0D01*
G01*
X180058250Y-43006500D01*
G75*
G02*
X179814500Y-42762750I0J243750D01*
G01*
G37*
%TD*%
%TO.C,C1*%
G36*
G01*
X178239500Y-44286750D02*
X178239500Y-43724250D01*
G75*
G02*
X178483250Y-43480500I243750J0D01*
G01*
X178970750Y-43480500D01*
G75*
G02*
X179214500Y-43724250I0J-243750D01*
G01*
X179214500Y-44286750D01*
G75*
G02*
X178970750Y-44530500I-243750J0D01*
G01*
X178483250Y-44530500D01*
G75*
G02*
X178239500Y-44286750I0J243750D01*
G01*
G37*
G36*
G01*
X179814500Y-44286750D02*
X179814500Y-43724250D01*
G75*
G02*
X180058250Y-43480500I243750J0D01*
G01*
X180545750Y-43480500D01*
G75*
G02*
X180789500Y-43724250I0J-243750D01*
G01*
X180789500Y-44286750D01*
G75*
G02*
X180545750Y-44530500I-243750J0D01*
G01*
X180058250Y-44530500D01*
G75*
G02*
X179814500Y-44286750I0J243750D01*
G01*
G37*
%TD*%
%TO.C,C6*%
G36*
G01*
X185072000Y-42762750D02*
X185072000Y-42200250D01*
G75*
G02*
X185315750Y-41956500I243750J0D01*
G01*
X185803250Y-41956500D01*
G75*
G02*
X186047000Y-42200250I0J-243750D01*
G01*
X186047000Y-42762750D01*
G75*
G02*
X185803250Y-43006500I-243750J0D01*
G01*
X185315750Y-43006500D01*
G75*
G02*
X185072000Y-42762750I0J243750D01*
G01*
G37*
G36*
G01*
X186647000Y-42762750D02*
X186647000Y-42200250D01*
G75*
G02*
X186890750Y-41956500I243750J0D01*
G01*
X187378250Y-41956500D01*
G75*
G02*
X187622000Y-42200250I0J-243750D01*
G01*
X187622000Y-42762750D01*
G75*
G02*
X187378250Y-43006500I-243750J0D01*
G01*
X186890750Y-43006500D01*
G75*
G02*
X186647000Y-42762750I0J243750D01*
G01*
G37*
%TD*%
%TO.C,C5*%
G36*
G01*
X189197000Y-51915750D02*
X189197000Y-52478250D01*
G75*
G02*
X188953250Y-52722000I-243750J0D01*
G01*
X188465750Y-52722000D01*
G75*
G02*
X188222000Y-52478250I0J243750D01*
G01*
X188222000Y-51915750D01*
G75*
G02*
X188465750Y-51672000I243750J0D01*
G01*
X188953250Y-51672000D01*
G75*
G02*
X189197000Y-51915750I0J-243750D01*
G01*
G37*
G36*
G01*
X187622000Y-51915750D02*
X187622000Y-52478250D01*
G75*
G02*
X187378250Y-52722000I-243750J0D01*
G01*
X186890750Y-52722000D01*
G75*
G02*
X186647000Y-52478250I0J243750D01*
G01*
X186647000Y-51915750D01*
G75*
G02*
X186890750Y-51672000I243750J0D01*
G01*
X187378250Y-51672000D01*
G75*
G02*
X187622000Y-51915750I0J-243750D01*
G01*
G37*
%TD*%
D17*
%TO.C,RN1*%
X195210000Y-50476000D03*
D18*
X195210000Y-49676000D03*
D17*
X195210000Y-48076000D03*
D18*
X195210000Y-48876000D03*
D17*
X193410000Y-50476000D03*
D18*
X193410000Y-48876000D03*
X193410000Y-49676000D03*
D17*
X193410000Y-48076000D03*
%TD*%
M02*
