M48
; DRILL file {KiCad (5.1.6)-1} date 06/26/20 00:22:16
; FORMAT={-:-/ absolute / metric / decimal}
; #@! TF.CreationDate,2020-06-26T00:22:16+04:00
; #@! TF.GenerationSoftware,Kicad,Pcbnew,(5.1.6)-1
; #@! TF.FileFunction,Plated,1,2,PTH
FMAT,2
METRIC
T1C0.400
T2C0.600
T3C1.000
%
G90
G05
T1
X177.546Y-42.481
X179.324Y-47.879
X182.054Y-52.387
X188.404Y-42.418
X191.326Y-51.562
X191.77Y-42.799
X192.149Y-49.655
X200.819Y-46.006
T3
X181.483Y-54.864
X184.023Y-54.864
X186.563Y-54.864
X189.103Y-54.864
X191.643Y-54.864
X205.232Y-40.957
X205.232Y-43.497
X205.232Y-46.038
X205.232Y-48.578
X205.232Y-51.117
X205.232Y-53.657
X193.802Y-41.529
X196.342Y-41.529
X198.882Y-41.529
T2
G00X171.716Y-42.733
M15
G01X171.116Y-42.733
M16
G05
G00X171.716Y-51.373
M15
G01X171.116Y-51.373
M16
G05
G00X176.146Y-42.733
M15
G01X175.046Y-42.733
M16
G05
G00X176.146Y-51.373
M15
G01X175.046Y-51.373
M16
G05
T0
M30
